<?xml version="1.0" encoding="UTF-8" standalone="no"?>
<!DOCTYPE svg PUBLIC "-//W3C//DTD SVG 1.1//EN"
 "http://www.w3.org/Graphics/SVG/1.1/DTD/svg11.dtd">
<!-- Generated by graphviz version 2.40.1 (20161225.0304)
 -->
<!-- Title: G Pages: 1 -->
<svg width="1034pt" height="481pt"
 viewBox="0.00 0.00 1034.29 480.57" xmlns="http://www.w3.org/2000/svg" xmlns:xlink="http://www.w3.org/1999/xlink">
<g id="graph0" class="graph" transform="scale(1 1) rotate(0) translate(21.6 458.9712)">
<title>G</title>
<polygon fill="#111111" stroke="transparent" points="-21.6,21.6 -21.6,-458.9712 1012.6889,-458.9712 1012.6889,21.6 -21.6,21.6"/>
<!-- ../config/default.json -->
<g id="node1" class="node">
<title>../config/default.json</title>
<path fill="none" stroke="#cfffac" d="M302.721,-310.1482C302.721,-310.1482 178.8043,-310.1482 178.8043,-310.1482 174.7714,-310.1482 170.7385,-306.1152 170.7385,-302.0823 170.7385,-302.0823 170.7385,-294.0164 170.7385,-294.0164 170.7385,-289.9834 174.7714,-285.9505 178.8043,-285.9505 178.8043,-285.9505 302.721,-285.9505 302.721,-285.9505 306.754,-285.9505 310.7869,-289.9834 310.7869,-294.0164 310.7869,-294.0164 310.7869,-302.0823 310.7869,-302.0823 310.7869,-306.1152 306.754,-310.1482 302.721,-310.1482"/>
<text text-anchor="middle" x="240.7627" y="-294.8986" font-family="Arial" font-size="14.00" fill="#cfffac">../config/default.json</text>
</g>
<!-- ../lib/js/_create.js -->
<g id="node2" class="node">
<title>../lib/js/_create.js</title>
<path fill="none" stroke="#c6c5fe" d="M292.9588,-226.1482C292.9588,-226.1482 188.5666,-226.1482 188.5666,-226.1482 184.5336,-226.1482 180.5007,-222.1152 180.5007,-218.0823 180.5007,-218.0823 180.5007,-210.0164 180.5007,-210.0164 180.5007,-205.9834 184.5336,-201.9505 188.5666,-201.9505 188.5666,-201.9505 292.9588,-201.9505 292.9588,-201.9505 296.9918,-201.9505 301.0247,-205.9834 301.0247,-210.0164 301.0247,-210.0164 301.0247,-218.0823 301.0247,-218.0823 301.0247,-222.1152 296.9918,-226.1482 292.9588,-226.1482"/>
<text text-anchor="middle" x="240.7627" y="-210.8986" font-family="Arial" font-size="14.00" fill="#c6c5fe">../lib/js/_create.js</text>
</g>
<!-- ../lib/js/_create/_build&#45;new&#45;package.js -->
<g id="node3" class="node">
<title>../lib/js/_create/_build&#45;new&#45;package.js</title>
<path fill="none" stroke="#cfffac" d="M674.0756,-268.1482C674.0756,-268.1482 440.2984,-268.1482 440.2984,-268.1482 436.2654,-268.1482 432.2325,-264.1152 432.2325,-260.0823 432.2325,-260.0823 432.2325,-252.0164 432.2325,-252.0164 432.2325,-247.9834 436.2654,-243.9505 440.2984,-243.9505 440.2984,-243.9505 674.0756,-243.9505 674.0756,-243.9505 678.1086,-243.9505 682.1415,-247.9834 682.1415,-252.0164 682.1415,-252.0164 682.1415,-260.0823 682.1415,-260.0823 682.1415,-264.1152 678.1086,-268.1482 674.0756,-268.1482"/>
<text text-anchor="middle" x="557.187" y="-252.8986" font-family="Arial" font-size="14.00" fill="#cfffac">../lib/js/_create/_build&#45;new&#45;package.js</text>
</g>
<!-- ../lib/js/_create.js&#45;&gt;../lib/js/_create/_build&#45;new&#45;package.js -->
<g id="edge1" class="edge">
<title>../lib/js/_create.js&#45;&gt;../lib/js/_create/_build&#45;new&#45;package.js</title>
<path fill="none" stroke="#757575" d="M301.0245,-222.0481C344.8158,-227.8606 405.113,-235.864 456.2064,-242.6458"/>
<polygon fill="#757575" stroke="#757575" points="455.9212,-246.1386 466.2948,-243.9849 456.8423,-239.1995 455.9212,-246.1386"/>
</g>
<!-- ../lib/js/_create/_get&#45;new&#45;package&#45;options.js -->
<g id="node4" class="node">
<title>../lib/js/_create/_get&#45;new&#45;package&#45;options.js</title>
<path fill="none" stroke="#cfffac" d="M693.7647,-226.1482C693.7647,-226.1482 420.6093,-226.1482 420.6093,-226.1482 416.5764,-226.1482 412.5434,-222.1152 412.5434,-218.0823 412.5434,-218.0823 412.5434,-210.0164 412.5434,-210.0164 412.5434,-205.9834 416.5764,-201.9505 420.6093,-201.9505 420.6093,-201.9505 693.7647,-201.9505 693.7647,-201.9505 697.7977,-201.9505 701.8306,-205.9834 701.8306,-210.0164 701.8306,-210.0164 701.8306,-218.0823 701.8306,-218.0823 701.8306,-222.1152 697.7977,-226.1482 693.7647,-226.1482"/>
<text text-anchor="middle" x="557.187" y="-210.8986" font-family="Arial" font-size="14.00" fill="#cfffac">../lib/js/_create/_get&#45;new&#45;package&#45;options.js</text>
</g>
<!-- ../lib/js/_create.js&#45;&gt;../lib/js/_create/_get&#45;new&#45;package&#45;options.js -->
<g id="edge2" class="edge">
<title>../lib/js/_create.js&#45;&gt;../lib/js/_create/_get&#45;new&#45;package&#45;options.js</title>
<path fill="none" stroke="#757575" d="M301.0245,-214.0493C330.0352,-214.0493 366.2899,-214.0493 402.3137,-214.0493"/>
<polygon fill="#757575" stroke="#757575" points="402.4619,-217.5494 412.4619,-214.0493 402.4619,-210.5494 402.4619,-217.5494"/>
</g>
<!-- ../lib/js/_utils/_error.js -->
<g id="node5" class="node">
<title>../lib/js/_utils/_error.js</title>
<path fill="none" stroke="#cfffac" d="M929.5682,-146.1482C929.5682,-146.1482 799.2795,-146.1482 799.2795,-146.1482 795.2465,-146.1482 791.2136,-142.1152 791.2136,-138.0823 791.2136,-138.0823 791.2136,-130.0164 791.2136,-130.0164 791.2136,-125.9834 795.2465,-121.9505 799.2795,-121.9505 799.2795,-121.9505 929.5682,-121.9505 929.5682,-121.9505 933.6011,-121.9505 937.6341,-125.9834 937.6341,-130.0164 937.6341,-130.0164 937.6341,-138.0823 937.6341,-138.0823 937.6341,-142.1152 933.6011,-146.1482 929.5682,-146.1482"/>
<text text-anchor="middle" x="864.4238" y="-130.8986" font-family="Arial" font-size="14.00" fill="#cfffac">../lib/js/_utils/_error.js</text>
</g>
<!-- ../lib/js/_create.js&#45;&gt;../lib/js/_utils/_error.js -->
<g id="edge3" class="edge">
<title>../lib/js/_create.js&#45;&gt;../lib/js/_utils/_error.js</title>
<path fill="none" stroke="#757575" d="M301.1746,-206.339C389.2598,-195.092 558.1078,-173.5145 701.7588,-155.0493 727.5642,-151.7322 755.6708,-148.1078 781.1485,-144.818"/>
<polygon fill="#757575" stroke="#757575" points="781.6747,-148.2792 791.144,-143.5271 780.7781,-141.3369 781.6747,-148.2792"/>
</g>
<!-- ../lib/js/_utils/_generate&#45;toolkit&#45;config.js -->
<g id="node6" class="node">
<title>../lib/js/_utils/_generate&#45;toolkit&#45;config.js</title>
<path fill="none" stroke="#c6c5fe" d="M677.5688,-394.1482C677.5688,-394.1482 436.8052,-394.1482 436.8052,-394.1482 432.7723,-394.1482 428.7394,-390.1152 428.7394,-386.0823 428.7394,-386.0823 428.7394,-378.0164 428.7394,-378.0164 428.7394,-373.9834 432.7723,-369.9505 436.8052,-369.9505 436.8052,-369.9505 677.5688,-369.9505 677.5688,-369.9505 681.6017,-369.9505 685.6347,-373.9834 685.6347,-378.0164 685.6347,-378.0164 685.6347,-386.0823 685.6347,-386.0823 685.6347,-390.1152 681.6017,-394.1482 677.5688,-394.1482"/>
<text text-anchor="middle" x="557.187" y="-378.8986" font-family="Arial" font-size="14.00" fill="#c6c5fe">../lib/js/_utils/_generate&#45;toolkit&#45;config.js</text>
</g>
<!-- ../lib/js/_create.js&#45;&gt;../lib/js/_utils/_generate&#45;toolkit&#45;config.js -->
<g id="edge4" class="edge">
<title>../lib/js/_create.js&#45;&gt;../lib/js/_utils/_generate&#45;toolkit&#45;config.js</title>
<path fill="none" stroke="#757575" d="M300.9573,-209.6508C327.0422,-210.9166 356.2137,-217.0497 376.6152,-235.0493 420.2883,-273.5806 368.767,-322.7175 412.6152,-361.0493 415.02,-363.1516 417.5381,-365.0978 420.1524,-366.8982"/>
<polygon fill="#757575" stroke="#757575" points="418.4462,-369.957 428.8084,-372.165 422.0848,-363.977 418.4462,-369.957"/>
</g>
<!-- ../lib/js/_utils/_get&#45;license.js -->
<g id="node7" class="node">
<title>../lib/js/_utils/_get&#45;license.js</title>
<path fill="none" stroke="#c6c5fe" d="M641.7484,-146.1482C641.7484,-146.1482 472.6256,-146.1482 472.6256,-146.1482 468.5926,-146.1482 464.5597,-142.1152 464.5597,-138.0823 464.5597,-138.0823 464.5597,-130.0164 464.5597,-130.0164 464.5597,-125.9834 468.5926,-121.9505 472.6256,-121.9505 472.6256,-121.9505 641.7484,-121.9505 641.7484,-121.9505 645.7814,-121.9505 649.8143,-125.9834 649.8143,-130.0164 649.8143,-130.0164 649.8143,-138.0823 649.8143,-138.0823 649.8143,-142.1152 645.7814,-146.1482 641.7484,-146.1482"/>
<text text-anchor="middle" x="557.187" y="-130.8986" font-family="Arial" font-size="14.00" fill="#c6c5fe">../lib/js/_utils/_get&#45;license.js</text>
</g>
<!-- ../lib/js/_create.js&#45;&gt;../lib/js/_utils/_get&#45;license.js -->
<g id="edge5" class="edge">
<title>../lib/js/_create.js&#45;&gt;../lib/js/_utils/_get&#45;license.js</title>
<path fill="none" stroke="#757575" d="M274.9623,-201.894C309.3867,-189.9942 364.1775,-171.9643 412.6152,-160.0493 430.8775,-155.5571 450.6154,-151.4954 469.4632,-147.989"/>
<polygon fill="#757575" stroke="#757575" points="470.3161,-151.3912 479.5254,-146.153 469.0596,-144.5049 470.3161,-151.3912"/>
</g>
<!-- ../lib/js/_utils/_get&#45;package&#45;name.js -->
<g id="node8" class="node">
<title>../lib/js/_utils/_get&#45;package&#45;name.js</title>
<path fill="none" stroke="#cfffac" d="M666.2825,-352.1482C666.2825,-352.1482 448.0915,-352.1482 448.0915,-352.1482 444.0586,-352.1482 440.0256,-348.1152 440.0256,-344.0823 440.0256,-344.0823 440.0256,-336.0164 440.0256,-336.0164 440.0256,-331.9834 444.0586,-327.9505 448.0915,-327.9505 448.0915,-327.9505 666.2825,-327.9505 666.2825,-327.9505 670.3154,-327.9505 674.3484,-331.9834 674.3484,-336.0164 674.3484,-336.0164 674.3484,-344.0823 674.3484,-344.0823 674.3484,-348.1152 670.3154,-352.1482 666.2825,-352.1482"/>
<text text-anchor="middle" x="557.187" y="-336.8986" font-family="Arial" font-size="14.00" fill="#cfffac">../lib/js/_utils/_get&#45;package&#45;name.js</text>
</g>
<!-- ../lib/js/_create.js&#45;&gt;../lib/js/_utils/_get&#45;package&#45;name.js -->
<g id="edge6" class="edge">
<title>../lib/js/_create.js&#45;&gt;../lib/js/_utils/_get&#45;package&#45;name.js</title>
<path fill="none" stroke="#757575" d="M300.9675,-210.9373C326.594,-212.5476 355.3989,-218.5956 376.6152,-235.0493 408.7118,-259.9409 380.4055,-294.3044 412.6152,-319.0493 418.1556,-323.3057 424.1777,-326.8892 430.5135,-329.8954"/>
<polygon fill="#757575" stroke="#757575" points="429.4271,-333.2358 440.0013,-333.8979 432.148,-326.7862 429.4271,-333.2358"/>
</g>
<!-- ../lib/js/_utils/_get&#45;packages.js -->
<g id="node9" class="node">
<title>../lib/js/_utils/_get&#45;packages.js</title>
<path fill="none" stroke="#cfffac" d="M650.0996,-310.1482C650.0996,-310.1482 464.2744,-310.1482 464.2744,-310.1482 460.2414,-310.1482 456.2085,-306.1152 456.2085,-302.0823 456.2085,-302.0823 456.2085,-294.0164 456.2085,-294.0164 456.2085,-289.9834 460.2414,-285.9505 464.2744,-285.9505 464.2744,-285.9505 650.0996,-285.9505 650.0996,-285.9505 654.1326,-285.9505 658.1655,-289.9834 658.1655,-294.0164 658.1655,-294.0164 658.1655,-302.0823 658.1655,-302.0823 658.1655,-306.1152 654.1326,-310.1482 650.0996,-310.1482"/>
<text text-anchor="middle" x="557.187" y="-294.8986" font-family="Arial" font-size="14.00" fill="#cfffac">../lib/js/_utils/_get&#45;packages.js</text>
</g>
<!-- ../lib/js/_create.js&#45;&gt;../lib/js/_utils/_get&#45;packages.js -->
<g id="edge7" class="edge">
<title>../lib/js/_create.js&#45;&gt;../lib/js/_utils/_get&#45;packages.js</title>
<path fill="none" stroke="#757575" d="M301.2165,-214.3584C325.8809,-216.7162 353.8838,-222.4008 376.6152,-235.0493 398.0988,-247.0034 391.0774,-265.1932 412.6152,-277.0493 423.0303,-282.7825 434.4783,-287.1203 446.2319,-290.3813"/>
<polygon fill="#757575" stroke="#757575" points="445.6096,-293.8336 456.1609,-292.8744 447.3143,-287.0444 445.6096,-293.8336"/>
</g>
<!-- ../lib/js/_utils/_check&#45;exists.js -->
<g id="node10" class="node">
<title>../lib/js/_utils/_check&#45;exists.js</title>
<path fill="none" stroke="#cfffac" d="M953.8023,-435.1482C953.8023,-435.1482 775.0454,-435.1482 775.0454,-435.1482 771.0124,-435.1482 766.9795,-431.1152 766.9795,-427.0823 766.9795,-427.0823 766.9795,-419.0164 766.9795,-419.0164 766.9795,-414.9834 771.0124,-410.9505 775.0454,-410.9505 775.0454,-410.9505 953.8023,-410.9505 953.8023,-410.9505 957.8352,-410.9505 961.8682,-414.9834 961.8682,-419.0164 961.8682,-419.0164 961.8682,-427.0823 961.8682,-427.0823 961.8682,-431.1152 957.8352,-435.1482 953.8023,-435.1482"/>
<text text-anchor="middle" x="864.4238" y="-419.8986" font-family="Arial" font-size="14.00" fill="#cfffac">../lib/js/_utils/_check&#45;exists.js</text>
</g>
<!-- ../lib/js/_utils/_generate&#45;toolkit&#45;config.js&#45;&gt;../lib/js/_utils/_check&#45;exists.js -->
<g id="edge8" class="edge">
<title>../lib/js/_utils/_generate&#45;toolkit&#45;config.js&#45;&gt;../lib/js/_utils/_check&#45;exists.js</title>
<path fill="none" stroke="#757575" d="M647.7065,-394.1289C684.2659,-399.0077 726.5963,-404.6566 764.0922,-409.6603"/>
<polygon fill="#757575" stroke="#757575" points="763.6458,-413.1317 774.0209,-410.9853 764.5718,-406.1932 763.6458,-413.1317"/>
</g>
<!-- ../lib/js/_utils/_check&#45;reserved&#45;keys.js -->
<g id="node11" class="node">
<title>../lib/js/_utils/_check&#45;reserved&#45;keys.js</title>
<path fill="none" stroke="#cfffac" d="M979.9331,-393.1482C979.9331,-393.1482 748.9145,-393.1482 748.9145,-393.1482 744.8816,-393.1482 740.8486,-389.1152 740.8486,-385.0823 740.8486,-385.0823 740.8486,-377.0164 740.8486,-377.0164 740.8486,-372.9834 744.8816,-368.9505 748.9145,-368.9505 748.9145,-368.9505 979.9331,-368.9505 979.9331,-368.9505 983.9661,-368.9505 987.999,-372.9834 987.999,-377.0164 987.999,-377.0164 987.999,-385.0823 987.999,-385.0823 987.999,-389.1152 983.9661,-393.1482 979.9331,-393.1482"/>
<text text-anchor="middle" x="864.4238" y="-377.8986" font-family="Arial" font-size="14.00" fill="#cfffac">../lib/js/_utils/_check&#45;reserved&#45;keys.js</text>
</g>
<!-- ../lib/js/_utils/_generate&#45;toolkit&#45;config.js&#45;&gt;../lib/js/_utils/_check&#45;reserved&#45;keys.js -->
<g id="edge9" class="edge">
<title>../lib/js/_utils/_generate&#45;toolkit&#45;config.js&#45;&gt;../lib/js/_utils/_check&#45;reserved&#45;keys.js</title>
<path fill="none" stroke="#757575" d="M685.7029,-381.631C700.5329,-381.5828 715.6837,-381.5334 730.5822,-381.4849"/>
<polygon fill="#757575" stroke="#757575" points="730.8606,-384.9842 740.8491,-381.4515 730.8377,-377.9842 730.8606,-384.9842"/>
</g>
<!-- ../lib/js/_utils/_deduped&#45;array&#45;merge.js -->
<g id="node13" class="node">
<title>../lib/js/_utils/_deduped&#45;array&#45;merge.js</title>
<path fill="none" stroke="#cfffac" d="M983.1882,-351.1482C983.1882,-351.1482 745.6594,-351.1482 745.6594,-351.1482 741.6265,-351.1482 737.5935,-347.1152 737.5935,-343.0823 737.5935,-343.0823 737.5935,-335.0164 737.5935,-335.0164 737.5935,-330.9834 741.6265,-326.9505 745.6594,-326.9505 745.6594,-326.9505 983.1882,-326.9505 983.1882,-326.9505 987.2212,-326.9505 991.2541,-330.9834 991.2541,-335.0164 991.2541,-335.0164 991.2541,-343.0823 991.2541,-343.0823 991.2541,-347.1152 987.2212,-351.1482 983.1882,-351.1482"/>
<text text-anchor="middle" x="864.4238" y="-335.8986" font-family="Arial" font-size="14.00" fill="#cfffac">../lib/js/_utils/_deduped&#45;array&#45;merge.js</text>
</g>
<!-- ../lib/js/_utils/_generate&#45;toolkit&#45;config.js&#45;&gt;../lib/js/_utils/_deduped&#45;array&#45;merge.js -->
<g id="edge10" class="edge">
<title>../lib/js/_utils/_generate&#45;toolkit&#45;config.js&#45;&gt;../lib/js/_utils/_deduped&#45;array&#45;merge.js</title>
<path fill="none" stroke="#757575" d="M643.5872,-369.957C682.3652,-364.5297 728.2614,-358.1062 768.1395,-352.525"/>
<polygon fill="#757575" stroke="#757575" points="768.722,-355.9777 778.1403,-351.1253 767.7517,-349.0452 768.722,-355.9777"/>
</g>
<!-- ../lib/js/_utils/_get&#45;license.js&#45;&gt;../lib/js/_utils/_error.js -->
<g id="edge11" class="edge">
<title>../lib/js/_utils/_get&#45;license.js&#45;&gt;../lib/js/_utils/_error.js</title>
<path fill="none" stroke="#757575" d="M650.202,-134.0493C691.7207,-134.0493 740.2733,-134.0493 780.6483,-134.0493"/>
<polygon fill="#757575" stroke="#757575" points="780.7277,-137.5494 790.7276,-134.0493 780.7276,-130.5494 780.7277,-137.5494"/>
</g>
<!-- ../lib/js/_utils/_current&#45;working&#45;directory.js -->
<g id="node12" class="node">
<title>../lib/js/_utils/_current&#45;working&#45;directory.js</title>
<path fill="none" stroke="#cfffac" d="M368.402,-66.1482C368.402,-66.1482 113.1233,-66.1482 113.1233,-66.1482 109.0904,-66.1482 105.0575,-62.1152 105.0575,-58.0823 105.0575,-58.0823 105.0575,-50.0164 105.0575,-50.0164 105.0575,-45.9834 109.0904,-41.9505 113.1233,-41.9505 113.1233,-41.9505 368.402,-41.9505 368.402,-41.9505 372.435,-41.9505 376.4679,-45.9834 376.4679,-50.0164 376.4679,-50.0164 376.4679,-58.0823 376.4679,-58.0823 376.4679,-62.1152 372.435,-66.1482 368.402,-66.1482"/>
<text text-anchor="middle" x="240.7627" y="-50.8986" font-family="Arial" font-size="14.00" fill="#cfffac">../lib/js/_utils/_current&#45;working&#45;directory.js</text>
</g>
<!-- ../lib/js/_utils/_get&#45;toolkit&#45;locations.js -->
<g id="node14" class="node">
<title>../lib/js/_utils/_get&#45;toolkit&#45;locations.js</title>
<path fill="none" stroke="#cfffac" d="M351.7344,-24.1482C351.7344,-24.1482 129.791,-24.1482 129.791,-24.1482 125.7581,-24.1482 121.7251,-20.1152 121.7251,-16.0823 121.7251,-16.0823 121.7251,-8.0164 121.7251,-8.0164 121.7251,-3.9834 125.7581,.0495 129.791,.0495 129.791,.0495 351.7344,.0495 351.7344,.0495 355.7673,.0495 359.8003,-3.9834 359.8003,-8.0164 359.8003,-8.0164 359.8003,-16.0823 359.8003,-16.0823 359.8003,-20.1152 355.7673,-24.1482 351.7344,-24.1482"/>
<text text-anchor="middle" x="240.7627" y="-8.8986" font-family="Arial" font-size="14.00" fill="#cfffac">../lib/js/_utils/_get&#45;toolkit&#45;locations.js</text>
</g>
<!-- ../lib/js/_utils/_get&#45;toolkit&#45;names.js -->
<g id="node15" class="node">
<title>../lib/js/_utils/_get&#45;toolkit&#45;names.js</title>
<path fill="none" stroke="#c6c5fe" d="M345.4997,-268.1482C345.4997,-268.1482 136.0256,-268.1482 136.0256,-268.1482 131.9927,-268.1482 127.9598,-264.1152 127.9598,-260.0823 127.9598,-260.0823 127.9598,-252.0164 127.9598,-252.0164 127.9598,-247.9834 131.9927,-243.9505 136.0256,-243.9505 136.0256,-243.9505 345.4997,-243.9505 345.4997,-243.9505 349.5327,-243.9505 353.5656,-247.9834 353.5656,-252.0164 353.5656,-252.0164 353.5656,-260.0823 353.5656,-260.0823 353.5656,-264.1152 349.5327,-268.1482 345.4997,-268.1482"/>
<text text-anchor="middle" x="240.7627" y="-252.8986" font-family="Arial" font-size="14.00" fill="#c6c5fe">../lib/js/_utils/_get&#45;toolkit&#45;names.js</text>
</g>
<!-- ../lib/js/_utils/_get&#45;toolkit&#45;names.js&#45;&gt;../lib/js/_utils/_check&#45;exists.js -->
<g id="edge12" class="edge">
<title>../lib/js/_utils/_get&#45;toolkit&#45;names.js&#45;&gt;../lib/js/_utils/_check&#45;exists.js</title>
<path fill="none" stroke="#757575" d="M353.7295,-262.746C362.0398,-266.3681 369.8147,-271.0494 376.6152,-277.0493 420.2883,-315.5806 366.9058,-366.9571 412.6152,-403.0493 463.997,-443.6203 640.1625,-439.8206 756.7336,-432.2419"/>
<polygon fill="#757575" stroke="#757575" points="757.0257,-435.7303 766.7698,-431.5707 756.5584,-428.7459 757.0257,-435.7303"/>
</g>
<!-- create.js -->
<g id="node16" class="node">
<title>create.js</title>
<path fill="none" stroke="#c6c5fe" d="M60.7994,-166.1482C60.7994,-166.1482 8.1108,-166.1482 8.1108,-166.1482 4.0778,-166.1482 .0449,-162.1152 .0449,-158.0823 .0449,-158.0823 .0449,-150.0164 .0449,-150.0164 .0449,-145.9834 4.0778,-141.9505 8.1108,-141.9505 8.1108,-141.9505 60.7994,-141.9505 60.7994,-141.9505 64.8323,-141.9505 68.8653,-145.9834 68.8653,-150.0164 68.8653,-150.0164 68.8653,-158.0823 68.8653,-158.0823 68.8653,-162.1152 64.8323,-166.1482 60.7994,-166.1482"/>
<text text-anchor="middle" x="34.4551" y="-150.8986" font-family="Arial" font-size="14.00" fill="#c6c5fe">create.js</text>
</g>
<!-- create.js&#45;&gt;../config/default.json -->
<g id="edge13" class="edge">
<title>create.js&#45;&gt;../config/default.json</title>
<path fill="none" stroke="#757575" d="M37.5898,-166.263C44.7701,-191.557 64.9522,-249.5957 104.9102,-277.0493 121.1581,-288.2127 141.0646,-294.3584 160.5771,-297.5622"/>
<polygon fill="#757575" stroke="#757575" points="160.3353,-301.0623 170.7235,-298.9804 161.3044,-294.1297 160.3353,-301.0623"/>
</g>
<!-- create.js&#45;&gt;../lib/js/_create.js -->
<g id="edge14" class="edge">
<title>create.js&#45;&gt;../lib/js/_create.js</title>
<path fill="none" stroke="#757575" d="M68.9863,-164.092C101.8396,-173.6466 151.6887,-188.1441 189.2389,-199.0648"/>
<polygon fill="#757575" stroke="#757575" points="188.4104,-202.4688 198.99,-201.9006 190.3652,-195.7472 188.4104,-202.4688"/>
</g>
<!-- create.js&#45;&gt;../lib/js/_utils/_error.js -->
<g id="edge16" class="edge">
<title>create.js&#45;&gt;../lib/js/_utils/_error.js</title>
<path fill="none" stroke="#757575" d="M69.0248,-149.0358C135.4289,-139.6871 285.5134,-119.9194 412.6152,-113.0493 540.9362,-106.1134 573.5152,-104.8054 701.7588,-113.0493 727.5975,-114.7103 755.603,-117.8408 780.9761,-121.1873"/>
<polygon fill="#757575" stroke="#757575" points="780.5523,-124.6617 790.9301,-122.5284 781.487,-117.7244 780.5523,-124.6617"/>
</g>
<!-- create.js&#45;&gt;../lib/js/_utils/_current&#45;working&#45;directory.js -->
<g id="edge15" class="edge">
<title>create.js&#45;&gt;../lib/js/_utils/_current&#45;working&#45;directory.js</title>
<path fill="none" stroke="#757575" d="M42.372,-141.8385C53.9578,-125.0418 77.193,-95.1738 104.9102,-80.0493 112.6445,-75.8289 120.9525,-72.2842 129.5109,-69.3081"/>
<polygon fill="#757575" stroke="#757575" points="130.8072,-72.5681 139.2626,-66.184 128.6716,-65.9018 130.8072,-72.5681"/>
</g>
<!-- create.js&#45;&gt;../lib/js/_utils/_get&#45;toolkit&#45;locations.js -->
<g id="edge17" class="edge">
<title>create.js&#45;&gt;../lib/js/_utils/_get&#45;toolkit&#45;locations.js</title>
<path fill="none" stroke="#757575" d="M37.7644,-141.648C45.1584,-116.559 65.5452,-59.8902 104.9102,-33.0493 107.3595,-31.3792 109.891,-29.8218 112.491,-28.3699"/>
<polygon fill="#757575" stroke="#757575" points="114.1939,-31.4317 121.5745,-23.8306 111.0646,-25.1701 114.1939,-31.4317"/>
</g>
<!-- create.js&#45;&gt;../lib/js/_utils/_get&#45;toolkit&#45;names.js -->
<g id="edge18" class="edge">
<title>create.js&#45;&gt;../lib/js/_utils/_get&#45;toolkit&#45;names.js</title>
<path fill="none" stroke="#757575" d="M41.2676,-166.3335C52.1291,-184.6364 75.2093,-218.6637 104.9102,-235.0493 109.1907,-237.4108 113.656,-239.5289 118.2491,-241.4273"/>
<polygon fill="#757575" stroke="#757575" points="117.2462,-244.7891 127.8384,-245.0233 119.7041,-238.2348 117.2462,-244.7891"/>
</g>
</g>
</svg>
