<?xml version="1.0" encoding="UTF-8" standalone="no"?>
<!DOCTYPE svg PUBLIC "-//W3C//DTD SVG 1.1//EN"
 "http://www.w3.org/Graphics/SVG/1.1/DTD/svg11.dtd">
<!-- Generated by graphviz version 2.40.1 (20161225.0304)
 -->
<!-- Title: G Pages: 1 -->
<svg width="1603pt" height="1137pt"
 viewBox="0.00 0.00 1602.78 1137.39" xmlns="http://www.w3.org/2000/svg" xmlns:xlink="http://www.w3.org/1999/xlink">
<g id="graph0" class="graph" transform="scale(1 1) rotate(0) translate(21.6 1115.7862)">
<title>G</title>
<polygon fill="#111111" stroke="transparent" points="-21.6,21.6 -21.6,-1115.7862 1581.184,-1115.7862 1581.184,21.6 -21.6,21.6"/>
<!-- ../config/context.json -->
<g id="node1" class="node">
<title>../config/context.json</title>
<path fill="none" stroke="#cfffac" d="M297.085,-688.2357C297.085,-688.2357 169.9619,-688.2357 169.9619,-688.2357 165.9289,-688.2357 161.896,-684.2028 161.896,-680.1698 161.896,-680.1698 161.896,-672.104 161.896,-672.104 161.896,-668.071 165.9289,-664.0381 169.9619,-664.0381 169.9619,-664.0381 297.085,-664.0381 297.085,-664.0381 301.1179,-664.0381 305.1509,-668.071 305.1509,-672.104 305.1509,-672.104 305.1509,-680.1698 305.1509,-680.1698 305.1509,-684.2028 301.1179,-688.2357 297.085,-688.2357"/>
<text text-anchor="middle" x="233.5234" y="-672.9862" font-family="Arial" font-size="14.00" fill="#cfffac">../config/context.json</text>
</g>
<!-- ../config/default.json -->
<g id="node2" class="node">
<title>../config/default.json</title>
<path fill="none" stroke="#cfffac" d="M295.4818,-486.2357C295.4818,-486.2357 171.5651,-486.2357 171.5651,-486.2357 167.5321,-486.2357 163.4992,-482.2028 163.4992,-478.1698 163.4992,-478.1698 163.4992,-470.104 163.4992,-470.104 163.4992,-466.071 167.5321,-462.0381 171.5651,-462.0381 171.5651,-462.0381 295.4818,-462.0381 295.4818,-462.0381 299.5147,-462.0381 303.5477,-466.071 303.5477,-470.104 303.5477,-470.104 303.5477,-478.1698 303.5477,-478.1698 303.5477,-482.2028 299.5147,-486.2357 295.4818,-486.2357"/>
<text text-anchor="middle" x="233.5234" y="-470.9862" font-family="Arial" font-size="14.00" fill="#cfffac">../config/default.json</text>
</g>
<!-- ../lib/js/_create.js -->
<g id="node3" class="node">
<title>../lib/js/_create.js</title>
<path fill="none" stroke="#c6c5fe" d="M285.7196,-287.2357C285.7196,-287.2357 181.3273,-287.2357 181.3273,-287.2357 177.2944,-287.2357 173.2614,-283.2028 173.2614,-279.1698 173.2614,-279.1698 173.2614,-271.104 173.2614,-271.104 173.2614,-267.071 177.2944,-263.0381 181.3273,-263.0381 181.3273,-263.0381 285.7196,-263.0381 285.7196,-263.0381 289.7525,-263.0381 293.7854,-267.071 293.7854,-271.104 293.7854,-271.104 293.7854,-279.1698 293.7854,-279.1698 293.7854,-283.2028 289.7525,-287.2357 285.7196,-287.2357"/>
<text text-anchor="middle" x="233.5234" y="-271.9862" font-family="Arial" font-size="14.00" fill="#c6c5fe">../lib/js/_create.js</text>
</g>
<!-- ../lib/js/_create/_build&#45;new&#45;package.js -->
<g id="node4" class="node">
<title>../lib/js/_create/_build&#45;new&#45;package.js</title>
<path fill="none" stroke="#cfffac" d="M652.9663,-128.2357C652.9663,-128.2357 419.189,-128.2357 419.189,-128.2357 415.1561,-128.2357 411.1231,-124.2028 411.1231,-120.1698 411.1231,-120.1698 411.1231,-112.104 411.1231,-112.104 411.1231,-108.071 415.1561,-104.0381 419.189,-104.0381 419.189,-104.0381 652.9663,-104.0381 652.9663,-104.0381 656.9992,-104.0381 661.0322,-108.071 661.0322,-112.104 661.0322,-112.104 661.0322,-120.1698 661.0322,-120.1698 661.0322,-124.2028 656.9992,-128.2357 652.9663,-128.2357"/>
<text text-anchor="middle" x="536.0776" y="-112.9862" font-family="Arial" font-size="14.00" fill="#cfffac">../lib/js/_create/_build&#45;new&#45;package.js</text>
</g>
<!-- ../lib/js/_create.js&#45;&gt;../lib/js/_create/_build&#45;new&#45;package.js -->
<g id="edge1" class="edge">
<title>../lib/js/_create.js&#45;&gt;../lib/js/_create/_build&#45;new&#45;package.js</title>
<path fill="none" stroke="#757575" d="M242.8377,-262.9865C264.8147,-235.3105 323.026,-167.6259 388.792,-137.1369 393.2443,-135.0728 397.8471,-133.1994 402.5534,-131.4998"/>
<polygon fill="#757575" stroke="#757575" points="403.9561,-134.7221 412.3442,-128.2498 401.7507,-128.0785 403.9561,-134.7221"/>
</g>
<!-- ../lib/js/_create/_get&#45;new&#45;package&#45;options.js -->
<g id="node5" class="node">
<title>../lib/js/_create/_get&#45;new&#45;package&#45;options.js</title>
<path fill="none" stroke="#cfffac" d="M672.6553,-170.2357C672.6553,-170.2357 399.4999,-170.2357 399.4999,-170.2357 395.467,-170.2357 391.434,-166.2028 391.434,-162.1698 391.434,-162.1698 391.434,-154.104 391.434,-154.104 391.434,-150.071 395.467,-146.0381 399.4999,-146.0381 399.4999,-146.0381 672.6553,-146.0381 672.6553,-146.0381 676.6883,-146.0381 680.7212,-150.071 680.7212,-154.104 680.7212,-154.104 680.7212,-162.1698 680.7212,-162.1698 680.7212,-166.2028 676.6883,-170.2357 672.6553,-170.2357"/>
<text text-anchor="middle" x="536.0776" y="-154.9862" font-family="Arial" font-size="14.00" fill="#cfffac">../lib/js/_create/_get&#45;new&#45;package&#45;options.js</text>
</g>
<!-- ../lib/js/_create.js&#45;&gt;../lib/js/_create/_get&#45;new&#45;package&#45;options.js -->
<g id="edge2" class="edge">
<title>../lib/js/_create.js&#45;&gt;../lib/js/_create/_get&#45;new&#45;package&#45;options.js</title>
<path fill="none" stroke="#757575" d="M249.7677,-262.9456C276.9983,-243.1455 334.2484,-204.1969 388.792,-184.1369 401.5386,-179.449 415.2249,-175.5913 428.9349,-172.4203"/>
<polygon fill="#757575" stroke="#757575" points="429.8921,-175.7936 438.909,-170.2307 428.3911,-168.9565 429.8921,-175.7936"/>
</g>
<!-- ../lib/js/_utils/_error.js -->
<g id="node6" class="node">
<title>../lib/js/_utils/_error.js</title>
<path fill="none" stroke="#cfffac" d="M1501.1907,-349.2357C1501.1907,-349.2357 1370.902,-349.2357 1370.902,-349.2357 1366.8691,-349.2357 1362.8361,-345.2028 1362.8361,-341.1698 1362.8361,-341.1698 1362.8361,-333.104 1362.8361,-333.104 1362.8361,-329.071 1366.8691,-325.0381 1370.902,-325.0381 1370.902,-325.0381 1501.1907,-325.0381 1501.1907,-325.0381 1505.2237,-325.0381 1509.2566,-329.071 1509.2566,-333.104 1509.2566,-333.104 1509.2566,-341.1698 1509.2566,-341.1698 1509.2566,-345.2028 1505.2237,-349.2357 1501.1907,-349.2357"/>
<text text-anchor="middle" x="1436.0464" y="-333.9862" font-family="Arial" font-size="14.00" fill="#cfffac">../lib/js/_utils/_error.js</text>
</g>
<!-- ../lib/js/_create.js&#45;&gt;../lib/js/_utils/_error.js -->
<g id="edge3" class="edge">
<title>../lib/js/_create.js&#45;&gt;../lib/js/_utils/_error.js</title>
<path fill="none" stroke="#757575" d="M274.1377,-263.0689C305.3183,-254.0678 349.5397,-241.8705 388.792,-233.1369 581.7641,-190.201 1094.1571,-98.785 1276.5088,-175.1369 1345.6964,-204.1062 1400.0712,-279.3246 1423.5039,-316.1732"/>
<polygon fill="#757575" stroke="#757575" points="1420.7826,-318.4254 1429.0331,-325.0722 1426.7284,-314.731 1420.7826,-318.4254"/>
</g>
<!-- ../lib/js/_utils/_generate&#45;toolkit&#45;config.js -->
<g id="node7" class="node">
<title>../lib/js/_utils/_generate&#45;toolkit&#45;config.js</title>
<path fill="none" stroke="#c6c5fe" d="M656.4594,-452.2357C656.4594,-452.2357 415.6959,-452.2357 415.6959,-452.2357 411.6629,-452.2357 407.63,-448.2028 407.63,-444.1698 407.63,-444.1698 407.63,-436.104 407.63,-436.104 407.63,-432.071 411.6629,-428.0381 415.6959,-428.0381 415.6959,-428.0381 656.4594,-428.0381 656.4594,-428.0381 660.4923,-428.0381 664.5253,-432.071 664.5253,-436.104 664.5253,-436.104 664.5253,-444.1698 664.5253,-444.1698 664.5253,-448.2028 660.4923,-452.2357 656.4594,-452.2357"/>
<text text-anchor="middle" x="536.0776" y="-436.9862" font-family="Arial" font-size="14.00" fill="#c6c5fe">../lib/js/_utils/_generate&#45;toolkit&#45;config.js</text>
</g>
<!-- ../lib/js/_create.js&#45;&gt;../lib/js/_utils/_generate&#45;toolkit&#45;config.js -->
<g id="edge4" class="edge">
<title>../lib/js/_create.js&#45;&gt;../lib/js/_utils/_generate&#45;toolkit&#45;config.js</title>
<path fill="none" stroke="#757575" d="M273.3374,-287.192C298.8833,-296.6765 331.1942,-312.175 352.792,-335.1369 380.6206,-364.7231 356.5499,-394.4342 388.792,-419.1369 391.9876,-421.5852 395.34,-423.8133 398.8183,-425.8388"/>
<polygon fill="#757575" stroke="#757575" points="397.22,-428.9526 407.7061,-430.4667 400.4529,-422.7439 397.22,-428.9526"/>
</g>
<!-- ../lib/js/_utils/_get&#45;license.js -->
<g id="node8" class="node">
<title>../lib/js/_utils/_get&#45;license.js</title>
<path fill="none" stroke="#c6c5fe" d="M620.6391,-410.2357C620.6391,-410.2357 451.5162,-410.2357 451.5162,-410.2357 447.4833,-410.2357 443.4503,-406.2028 443.4503,-402.1698 443.4503,-402.1698 443.4503,-394.104 443.4503,-394.104 443.4503,-390.071 447.4833,-386.0381 451.5162,-386.0381 451.5162,-386.0381 620.6391,-386.0381 620.6391,-386.0381 624.672,-386.0381 628.705,-390.071 628.705,-394.104 628.705,-394.104 628.705,-402.1698 628.705,-402.1698 628.705,-406.2028 624.672,-410.2357 620.6391,-410.2357"/>
<text text-anchor="middle" x="536.0776" y="-394.9862" font-family="Arial" font-size="14.00" fill="#c6c5fe">../lib/js/_utils/_get&#45;license.js</text>
</g>
<!-- ../lib/js/_create.js&#45;&gt;../lib/js/_utils/_get&#45;license.js -->
<g id="edge5" class="edge">
<title>../lib/js/_create.js&#45;&gt;../lib/js/_utils/_get&#45;license.js</title>
<path fill="none" stroke="#757575" d="M265.6427,-287.1902C290.8582,-297.5824 326.0525,-314.2066 352.792,-335.1369 372.1518,-350.2908 367.2386,-365.3091 388.792,-377.1369 402.3516,-384.578 417.6266,-389.687 433.0726,-393.1477"/>
<polygon fill="#757575" stroke="#757575" points="432.7372,-396.6503 443.2312,-395.1918 434.1181,-389.7878 432.7372,-396.6503"/>
</g>
<!-- ../lib/js/_utils/_get&#45;package&#45;name.js -->
<g id="node9" class="node">
<title>../lib/js/_utils/_get&#45;package&#45;name.js</title>
<path fill="none" stroke="#cfffac" d="M1260.8841,-1013.2357C1260.8841,-1013.2357 1042.6931,-1013.2357 1042.6931,-1013.2357 1038.6601,-1013.2357 1034.6272,-1009.2028 1034.6272,-1005.1698 1034.6272,-1005.1698 1034.6272,-997.104 1034.6272,-997.104 1034.6272,-993.071 1038.6601,-989.0381 1042.6931,-989.0381 1042.6931,-989.0381 1260.8841,-989.0381 1260.8841,-989.0381 1264.917,-989.0381 1268.95,-993.071 1268.95,-997.104 1268.95,-997.104 1268.95,-1005.1698 1268.95,-1005.1698 1268.95,-1009.2028 1264.917,-1013.2357 1260.8841,-1013.2357"/>
<text text-anchor="middle" x="1151.7886" y="-997.9862" font-family="Arial" font-size="14.00" fill="#cfffac">../lib/js/_utils/_get&#45;package&#45;name.js</text>
</g>
<!-- ../lib/js/_create.js&#45;&gt;../lib/js/_utils/_get&#45;package&#45;name.js -->
<g id="edge6" class="edge">
<title>../lib/js/_create.js&#45;&gt;../lib/js/_utils/_get&#45;package&#45;name.js</title>
<path fill="none" stroke="#757575" d="M293.8139,-265.5454C322.4992,-261.4506 357.3289,-257.1549 388.792,-255.1369 455.5744,-250.8535 942.5215,-209.0779 991.0684,-255.1369 1046.279,-307.5181 985.2958,-875.5204 1027.0684,-939.1369 1041.7731,-961.5311 1067.1103,-976.1544 1091.1226,-985.5384"/>
<polygon fill="#757575" stroke="#757575" points="1089.9933,-988.8521 1100.587,-989.0044 1092.4005,-982.279 1089.9933,-988.8521"/>
</g>
<!-- ../lib/js/_utils/_get&#45;packages.js -->
<g id="node10" class="node">
<title>../lib/js/_utils/_get&#45;packages.js</title>
<path fill="none" stroke="#cfffac" d="M628.9903,-368.2357C628.9903,-368.2357 443.165,-368.2357 443.165,-368.2357 439.1321,-368.2357 435.0991,-364.2028 435.0991,-360.1698 435.0991,-360.1698 435.0991,-352.104 435.0991,-352.104 435.0991,-348.071 439.1321,-344.0381 443.165,-344.0381 443.165,-344.0381 628.9903,-344.0381 628.9903,-344.0381 633.0232,-344.0381 637.0562,-348.071 637.0562,-352.104 637.0562,-352.104 637.0562,-360.1698 637.0562,-360.1698 637.0562,-364.2028 633.0232,-368.2357 628.9903,-368.2357"/>
<text text-anchor="middle" x="536.0776" y="-352.9862" font-family="Arial" font-size="14.00" fill="#cfffac">../lib/js/_utils/_get&#45;packages.js</text>
</g>
<!-- ../lib/js/_create.js&#45;&gt;../lib/js/_utils/_get&#45;packages.js -->
<g id="edge7" class="edge">
<title>../lib/js/_create.js&#45;&gt;../lib/js/_utils/_get&#45;packages.js</title>
<path fill="none" stroke="#757575" d="M278.8189,-287.2634C332.8931,-301.7402 423.2739,-325.937 481.245,-341.4571"/>
<polygon fill="#757575" stroke="#757575" points="480.4024,-344.8547 490.9674,-344.06 482.2127,-338.0928 480.4024,-344.8547"/>
</g>
<!-- ../lib/js/_utils/_check&#45;exists.js -->
<g id="node22" class="node">
<title>../lib/js/_utils/_check&#45;exists.js</title>
<path fill="none" stroke="#cfffac" d="M944.5943,-535.2357C944.5943,-535.2357 765.8374,-535.2357 765.8374,-535.2357 761.8044,-535.2357 757.7715,-531.2028 757.7715,-527.1698 757.7715,-527.1698 757.7715,-519.104 757.7715,-519.104 757.7715,-515.071 761.8044,-511.0381 765.8374,-511.0381 765.8374,-511.0381 944.5943,-511.0381 944.5943,-511.0381 948.6272,-511.0381 952.6602,-515.071 952.6602,-519.104 952.6602,-519.104 952.6602,-527.1698 952.6602,-527.1698 952.6602,-531.2028 948.6272,-535.2357 944.5943,-535.2357"/>
<text text-anchor="middle" x="855.2158" y="-519.9862" font-family="Arial" font-size="14.00" fill="#cfffac">../lib/js/_utils/_check&#45;exists.js</text>
</g>
<!-- ../lib/js/_utils/_generate&#45;toolkit&#45;config.js&#45;&gt;../lib/js/_utils/_check&#45;exists.js -->
<g id="edge24" class="edge">
<title>../lib/js/_utils/_generate&#45;toolkit&#45;config.js&#45;&gt;../lib/js/_utils/_check&#45;exists.js</title>
<path fill="none" stroke="#757575" d="M663.3263,-452.2488C670.2711,-454.7556 677.0024,-457.6955 683.3633,-461.1369 704.6915,-472.6762 698.1031,-490.4726 719.3633,-502.1369 728.1511,-506.9583 737.7121,-510.7629 747.556,-513.7547"/>
<polygon fill="#757575" stroke="#757575" points="746.906,-517.2058 757.4761,-516.4829 748.7623,-510.4564 746.906,-517.2058"/>
</g>
<!-- ../lib/js/_utils/_check&#45;reserved&#45;keys.js -->
<g id="node23" class="node">
<title>../lib/js/_utils/_check&#45;reserved&#45;keys.js</title>
<path fill="none" stroke="#cfffac" d="M970.7251,-493.2357C970.7251,-493.2357 739.7065,-493.2357 739.7065,-493.2357 735.6736,-493.2357 731.6406,-489.2028 731.6406,-485.1698 731.6406,-485.1698 731.6406,-477.104 731.6406,-477.104 731.6406,-473.071 735.6736,-469.0381 739.7065,-469.0381 739.7065,-469.0381 970.7251,-469.0381 970.7251,-469.0381 974.7581,-469.0381 978.791,-473.071 978.791,-477.104 978.791,-477.104 978.791,-485.1698 978.791,-485.1698 978.791,-489.2028 974.7581,-493.2357 970.7251,-493.2357"/>
<text text-anchor="middle" x="855.2158" y="-477.9862" font-family="Arial" font-size="14.00" fill="#cfffac">../lib/js/_utils/_check&#45;reserved&#45;keys.js</text>
</g>
<!-- ../lib/js/_utils/_generate&#45;toolkit&#45;config.js&#45;&gt;../lib/js/_utils/_check&#45;reserved&#45;keys.js -->
<g id="edge25" class="edge">
<title>../lib/js/_utils/_generate&#45;toolkit&#45;config.js&#45;&gt;../lib/js/_utils/_check&#45;reserved&#45;keys.js</title>
<path fill="none" stroke="#757575" d="M630.1035,-452.2165C668.0791,-457.0953 712.0493,-462.7442 750.9977,-467.7479"/>
<polygon fill="#757575" stroke="#757575" points="750.9465,-471.27 761.311,-469.0729 751.8385,-464.3271 750.9465,-471.27"/>
</g>
<!-- ../lib/js/_utils/_deduped&#45;array&#45;merge.js -->
<g id="node25" class="node">
<title>../lib/js/_utils/_deduped&#45;array&#45;merge.js</title>
<path fill="none" stroke="#cfffac" d="M973.9802,-451.2357C973.9802,-451.2357 736.4514,-451.2357 736.4514,-451.2357 732.4185,-451.2357 728.3855,-447.2028 728.3855,-443.1698 728.3855,-443.1698 728.3855,-435.104 728.3855,-435.104 728.3855,-431.071 732.4185,-427.0381 736.4514,-427.0381 736.4514,-427.0381 973.9802,-427.0381 973.9802,-427.0381 978.0132,-427.0381 982.0461,-431.071 982.0461,-435.104 982.0461,-435.104 982.0461,-443.1698 982.0461,-443.1698 982.0461,-447.2028 978.0132,-451.2357 973.9802,-451.2357"/>
<text text-anchor="middle" x="855.2158" y="-435.9862" font-family="Arial" font-size="14.00" fill="#cfffac">../lib/js/_utils/_deduped&#45;array&#45;merge.js</text>
</g>
<!-- ../lib/js/_utils/_generate&#45;toolkit&#45;config.js&#45;&gt;../lib/js/_utils/_deduped&#45;array&#45;merge.js -->
<g id="edge26" class="edge">
<title>../lib/js/_utils/_generate&#45;toolkit&#45;config.js&#45;&gt;../lib/js/_utils/_deduped&#45;array&#45;merge.js</title>
<path fill="none" stroke="#757575" d="M664.5038,-439.7345C682.0955,-439.6794 700.2125,-439.6226 717.9543,-439.567"/>
<polygon fill="#757575" stroke="#757575" points="718.3612,-443.0658 728.3502,-439.5344 718.3392,-436.0659 718.3612,-443.0658"/>
</g>
<!-- ../lib/js/_utils/_get&#45;license.js&#45;&gt;../lib/js/_utils/_error.js -->
<g id="edge28" class="edge">
<title>../lib/js/_utils/_get&#45;license.js&#45;&gt;../lib/js/_utils/_error.js</title>
<path fill="none" stroke="#757575" d="M629.0004,-391.8386C804.935,-379.9137 1184.1091,-354.2132 1352.5162,-342.7986"/>
<polygon fill="#757575" stroke="#757575" points="1352.8293,-346.2855 1362.5697,-342.1172 1352.3559,-339.3015 1352.8293,-346.2855"/>
</g>
<!-- ../lib/js/_publish.js -->
<g id="node11" class="node">
<title>../lib/js/_publish.js</title>
<path fill="none" stroke="#c6c5fe" d="M288.1747,-368.2357C288.1747,-368.2357 178.8722,-368.2357 178.8722,-368.2357 174.8393,-368.2357 170.8063,-364.2028 170.8063,-360.1698 170.8063,-360.1698 170.8063,-352.104 170.8063,-352.104 170.8063,-348.071 174.8393,-344.0381 178.8722,-344.0381 178.8722,-344.0381 288.1747,-344.0381 288.1747,-344.0381 292.2076,-344.0381 296.2406,-348.071 296.2406,-352.104 296.2406,-352.104 296.2406,-360.1698 296.2406,-360.1698 296.2406,-364.2028 292.2076,-368.2357 288.1747,-368.2357"/>
<text text-anchor="middle" x="233.5234" y="-352.9862" font-family="Arial" font-size="14.00" fill="#c6c5fe">../lib/js/_publish.js</text>
</g>
<!-- ../lib/js/_publish.js&#45;&gt;../lib/js/_utils/_error.js -->
<g id="edge11" class="edge">
<title>../lib/js/_publish.js&#45;&gt;../lib/js/_utils/_error.js</title>
<path fill="none" stroke="#757575" d="M296.4088,-345.6765C324.5764,-341.4967 358.2591,-337.1923 388.792,-335.1369 746.6945,-311.0435 1174.9579,-325.2748 1352.5529,-333.0687"/>
<polygon fill="#757575" stroke="#757575" points="1352.4645,-336.5681 1362.6099,-333.515 1352.7749,-329.575 1352.4645,-336.5681"/>
</g>
<!-- ../lib/js/_publish.js&#45;&gt;../lib/js/_utils/_get&#45;packages.js -->
<g id="edge12" class="edge">
<title>../lib/js/_publish.js&#45;&gt;../lib/js/_utils/_get&#45;packages.js</title>
<path fill="none" stroke="#757575" d="M296.5804,-356.1369C333.6948,-356.1369 381.6991,-356.1369 424.9745,-356.1369"/>
<polygon fill="#757575" stroke="#757575" points="424.9939,-359.637 434.9938,-356.1369 424.9938,-352.637 424.9939,-359.637"/>
</g>
<!-- ../lib/js/_publish/_create&#45;install&#45;message.js -->
<g id="node12" class="node">
<title>../lib/js/_publish/_create&#45;install&#45;message.js</title>
<path fill="none" stroke="#c6c5fe" d="M667.2384,-650.2357C667.2384,-650.2357 404.9169,-650.2357 404.9169,-650.2357 400.8839,-650.2357 396.851,-646.2028 396.851,-642.1698 396.851,-642.1698 396.851,-634.104 396.851,-634.104 396.851,-630.071 400.8839,-626.0381 404.9169,-626.0381 404.9169,-626.0381 667.2384,-626.0381 667.2384,-626.0381 671.2713,-626.0381 675.3043,-630.071 675.3043,-634.104 675.3043,-634.104 675.3043,-642.1698 675.3043,-642.1698 675.3043,-646.2028 671.2713,-650.2357 667.2384,-650.2357"/>
<text text-anchor="middle" x="536.0776" y="-634.9862" font-family="Arial" font-size="14.00" fill="#c6c5fe">../lib/js/_publish/_create&#45;install&#45;message.js</text>
</g>
<!-- ../lib/js/_publish.js&#45;&gt;../lib/js/_publish/_create&#45;install&#45;message.js -->
<g id="edge8" class="edge">
<title>../lib/js/_publish.js&#45;&gt;../lib/js/_publish/_create&#45;install&#45;message.js</title>
<path fill="none" stroke="#757575" d="M274.1829,-368.204C300.4266,-378.0529 333.2072,-394.5855 352.792,-420.1369 395.5521,-475.9241 343.7653,-520.1624 388.792,-574.1369 408.762,-598.0754 439.386,-613.312 467.5471,-622.8813"/>
<polygon fill="#757575" stroke="#757575" points="466.7926,-626.3148 477.3838,-626.0347 468.9296,-619.649 466.7926,-626.3148"/>
</g>
<!-- ../lib/js/_publish/_publish&#45;to&#45;npm.js -->
<g id="node13" class="node">
<title>../lib/js/_publish/_publish&#45;to&#45;npm.js</title>
<path fill="none" stroke="#c6c5fe" d="M643.0039,-288.2357C643.0039,-288.2357 429.1513,-288.2357 429.1513,-288.2357 425.1184,-288.2357 421.0854,-284.2028 421.0854,-280.1698 421.0854,-280.1698 421.0854,-272.104 421.0854,-272.104 421.0854,-268.071 425.1184,-264.0381 429.1513,-264.0381 429.1513,-264.0381 643.0039,-264.0381 643.0039,-264.0381 647.0369,-264.0381 651.0698,-268.071 651.0698,-272.104 651.0698,-272.104 651.0698,-280.1698 651.0698,-280.1698 651.0698,-284.2028 647.0369,-288.2357 643.0039,-288.2357"/>
<text text-anchor="middle" x="536.0776" y="-272.9862" font-family="Arial" font-size="14.00" fill="#c6c5fe">../lib/js/_publish/_publish&#45;to&#45;npm.js</text>
</g>
<!-- ../lib/js/_publish.js&#45;&gt;../lib/js/_publish/_publish&#45;to&#45;npm.js -->
<g id="edge9" class="edge">
<title>../lib/js/_publish.js&#45;&gt;../lib/js/_publish/_publish&#45;to&#45;npm.js</title>
<path fill="none" stroke="#757575" d="M263.7184,-344.0178C294.6871,-331.974 344.4631,-313.6788 388.792,-302.1369 406.5774,-297.5061 425.787,-293.4485 444.2736,-290.0011"/>
<polygon fill="#757575" stroke="#757575" points="444.9471,-293.4361 454.1586,-288.2017 443.6934,-286.5493 444.9471,-293.4361"/>
</g>
<!-- ../lib/js/_utils/_check&#45;current&#45;version.js -->
<g id="node14" class="node">
<title>../lib/js/_utils/_check&#45;current&#45;version.js</title>
<path fill="none" stroke="#c6c5fe" d="M973.1738,-697.2357C973.1738,-697.2357 737.2578,-697.2357 737.2578,-697.2357 733.2249,-697.2357 729.1919,-693.2028 729.1919,-689.1698 729.1919,-689.1698 729.1919,-681.104 729.1919,-681.104 729.1919,-677.071 733.2249,-673.0381 737.2578,-673.0381 737.2578,-673.0381 973.1738,-673.0381 973.1738,-673.0381 977.2068,-673.0381 981.2397,-677.071 981.2397,-681.104 981.2397,-681.104 981.2397,-689.1698 981.2397,-689.1698 981.2397,-693.2028 977.2068,-697.2357 973.1738,-697.2357"/>
<text text-anchor="middle" x="855.2158" y="-681.9862" font-family="Arial" font-size="14.00" fill="#c6c5fe">../lib/js/_utils/_check&#45;current&#45;version.js</text>
</g>
<!-- ../lib/js/_publish.js&#45;&gt;../lib/js/_utils/_check&#45;current&#45;version.js -->
<g id="edge10" class="edge">
<title>../lib/js/_publish.js&#45;&gt;../lib/js/_utils/_check&#45;current&#45;version.js</title>
<path fill="none" stroke="#757575" d="M269.6979,-368.1905C295.7327,-378.455 330.1195,-395.4937 352.792,-420.1369 380.0164,-449.7278 359.7969,-475.2788 388.792,-503.1369 490.0226,-600.3978 552.6344,-565.9776 683.3633,-617.1369 728.7011,-634.8794 780.6675,-655.4784 815.4773,-669.3147"/>
<polygon fill="#757575" stroke="#757575" points="814.2351,-672.5873 824.8207,-673.0299 816.8216,-666.0826 814.2351,-672.5873"/>
</g>
<!-- ../lib/js/_utils/_check&#45;context&#45;version.js -->
<g id="node15" class="node">
<title>../lib/js/_utils/_check&#45;context&#45;version.js</title>
<path fill="none" stroke="#c6c5fe" d="M974.2388,-888.2357C974.2388,-888.2357 736.1928,-888.2357 736.1928,-888.2357 732.1599,-888.2357 728.1269,-884.2028 728.1269,-880.1698 728.1269,-880.1698 728.1269,-872.104 728.1269,-872.104 728.1269,-868.071 732.1599,-864.0381 736.1928,-864.0381 736.1928,-864.0381 974.2388,-864.0381 974.2388,-864.0381 978.2718,-864.0381 982.3047,-868.071 982.3047,-872.104 982.3047,-872.104 982.3047,-880.1698 982.3047,-880.1698 982.3047,-884.2028 978.2718,-888.2357 974.2388,-888.2357"/>
<text text-anchor="middle" x="855.2158" y="-872.9862" font-family="Arial" font-size="14.00" fill="#c6c5fe">../lib/js/_utils/_check&#45;context&#45;version.js</text>
</g>
<!-- ../lib/js/_publish/_create&#45;install&#45;message.js&#45;&gt;../lib/js/_utils/_check&#45;context&#45;version.js -->
<g id="edge13" class="edge">
<title>../lib/js/_publish/_create&#45;install&#45;message.js&#45;&gt;../lib/js/_utils/_check&#45;context&#45;version.js</title>
<path fill="none" stroke="#757575" d="M665.078,-650.3185C671.4288,-652.8263 677.567,-655.7455 683.3633,-659.1369 706.0739,-672.4249 703.1492,-685.4137 719.3633,-706.1369 761.9232,-760.5327 812.9767,-823.9315 838.6895,-855.7357"/>
<polygon fill="#757575" stroke="#757575" points="836.231,-858.2616 845.2417,-863.8345 841.673,-853.8588 836.231,-858.2616"/>
</g>
<!-- ../lib/js/_publish/_publish&#45;package.js -->
<g id="node17" class="node">
<title>../lib/js/_publish/_publish&#45;package.js</title>
<path fill="none" stroke="#cfffac" d="M967.0008,-288.2357C967.0008,-288.2357 743.4309,-288.2357 743.4309,-288.2357 739.3979,-288.2357 735.365,-284.2028 735.365,-280.1698 735.365,-280.1698 735.365,-272.104 735.365,-272.104 735.365,-268.071 739.3979,-264.0381 743.4309,-264.0381 743.4309,-264.0381 967.0008,-264.0381 967.0008,-264.0381 971.0337,-264.0381 975.0667,-268.071 975.0667,-272.104 975.0667,-272.104 975.0667,-280.1698 975.0667,-280.1698 975.0667,-284.2028 971.0337,-288.2357 967.0008,-288.2357"/>
<text text-anchor="middle" x="855.2158" y="-272.9862" font-family="Arial" font-size="14.00" fill="#cfffac">../lib/js/_publish/_publish&#45;package.js</text>
</g>
<!-- ../lib/js/_publish/_publish&#45;to&#45;npm.js&#45;&gt;../lib/js/_publish/_publish&#45;package.js -->
<g id="edge14" class="edge">
<title>../lib/js/_publish/_publish&#45;to&#45;npm.js&#45;&gt;../lib/js/_publish/_publish&#45;package.js</title>
<path fill="none" stroke="#757575" d="M651.2938,-276.1369C675.3028,-276.1369 700.7669,-276.1369 725.2657,-276.1369"/>
<polygon fill="#757575" stroke="#757575" points="725.3306,-279.637 735.3306,-276.1369 725.3305,-272.637 725.3306,-279.637"/>
</g>
<!-- ../lib/js/_publish/_set&#45;auth&#45;token.js -->
<g id="node18" class="node">
<title>../lib/js/_publish/_set&#45;auth&#45;token.js</title>
<path fill="none" stroke="#c6c5fe" d="M960.5386,-208.2357C960.5386,-208.2357 749.893,-208.2357 749.893,-208.2357 745.8601,-208.2357 741.8271,-204.2028 741.8271,-200.1698 741.8271,-200.1698 741.8271,-192.104 741.8271,-192.104 741.8271,-188.071 745.8601,-184.0381 749.893,-184.0381 749.893,-184.0381 960.5386,-184.0381 960.5386,-184.0381 964.5716,-184.0381 968.6045,-188.071 968.6045,-192.104 968.6045,-192.104 968.6045,-200.1698 968.6045,-200.1698 968.6045,-204.2028 964.5716,-208.2357 960.5386,-208.2357"/>
<text text-anchor="middle" x="855.2158" y="-192.9862" font-family="Arial" font-size="14.00" fill="#c6c5fe">../lib/js/_publish/_set&#45;auth&#45;token.js</text>
</g>
<!-- ../lib/js/_publish/_publish&#45;to&#45;npm.js&#45;&gt;../lib/js/_publish/_set&#45;auth&#45;token.js -->
<g id="edge15" class="edge">
<title>../lib/js/_publish/_publish&#45;to&#45;npm.js&#45;&gt;../lib/js/_publish/_set&#45;auth&#45;token.js</title>
<path fill="none" stroke="#757575" d="M584.2014,-264.0735C641.1904,-249.7877 736.0593,-226.0065 797.0952,-210.7063"/>
<polygon fill="#757575" stroke="#757575" points="798.1131,-214.0595 806.9619,-208.233 796.411,-207.2696 798.1131,-214.0595"/>
</g>
<!-- ../lib/js/_utils/_check&#45;new&#45;version.js -->
<g id="node20" class="node">
<title>../lib/js/_utils/_check&#45;new&#45;version.js</title>
<path fill="none" stroke="#c6c5fe" d="M1260.8568,-671.2357C1260.8568,-671.2357 1042.7204,-671.2357 1042.7204,-671.2357 1038.6874,-671.2357 1034.6545,-667.2028 1034.6545,-663.1698 1034.6545,-663.1698 1034.6545,-655.104 1034.6545,-655.104 1034.6545,-651.071 1038.6874,-647.0381 1042.7204,-647.0381 1042.7204,-647.0381 1260.8568,-647.0381 1260.8568,-647.0381 1264.8897,-647.0381 1268.9226,-651.071 1268.9226,-655.104 1268.9226,-655.104 1268.9226,-663.1698 1268.9226,-663.1698 1268.9226,-667.2028 1264.8897,-671.2357 1260.8568,-671.2357"/>
<text text-anchor="middle" x="1151.7886" y="-655.9862" font-family="Arial" font-size="14.00" fill="#c6c5fe">../lib/js/_utils/_check&#45;new&#45;version.js</text>
</g>
<!-- ../lib/js/_utils/_check&#45;current&#45;version.js&#45;&gt;../lib/js/_utils/_check&#45;new&#45;version.js -->
<g id="edge18" class="edge">
<title>../lib/js/_utils/_check&#45;current&#45;version.js&#45;&gt;../lib/js/_utils/_check&#45;new&#45;version.js</title>
<path fill="none" stroke="#757575" d="M981.4194,-674.0729C995.6281,-672.8272 1010.1135,-671.5573 1024.3379,-670.3103"/>
<polygon fill="#757575" stroke="#757575" points="1024.9856,-673.767 1034.6417,-669.407 1024.3742,-666.7938 1024.9856,-673.767"/>
</g>
<!-- ../lib/js/_utils/_get&#45;latest&#45;version.js -->
<g id="node21" class="node">
<title>../lib/js/_utils/_get&#45;latest&#45;version.js</title>
<path fill="none" stroke="#c6c5fe" d="M1256.5256,-723.2357C1256.5256,-723.2357 1047.0515,-723.2357 1047.0515,-723.2357 1043.0186,-723.2357 1038.9856,-719.2028 1038.9856,-715.1698 1038.9856,-715.1698 1038.9856,-707.104 1038.9856,-707.104 1038.9856,-703.071 1043.0186,-699.0381 1047.0515,-699.0381 1047.0515,-699.0381 1256.5256,-699.0381 1256.5256,-699.0381 1260.5586,-699.0381 1264.5915,-703.071 1264.5915,-707.104 1264.5915,-707.104 1264.5915,-715.1698 1264.5915,-715.1698 1264.5915,-719.2028 1260.5586,-723.2357 1256.5256,-723.2357"/>
<text text-anchor="middle" x="1151.7886" y="-707.9862" font-family="Arial" font-size="14.00" fill="#c6c5fe">../lib/js/_utils/_get&#45;latest&#45;version.js</text>
</g>
<!-- ../lib/js/_utils/_check&#45;current&#45;version.js&#45;&gt;../lib/js/_utils/_get&#45;latest&#45;version.js -->
<g id="edge19" class="edge">
<title>../lib/js/_utils/_check&#45;current&#45;version.js&#45;&gt;../lib/js/_utils/_get&#45;latest&#45;version.js</title>
<path fill="none" stroke="#757575" d="M981.4194,-696.2009C997.0679,-697.5728 1013.0521,-698.9741 1028.6536,-700.3419"/>
<polygon fill="#757575" stroke="#757575" points="1028.5759,-703.8484 1038.8434,-701.2352 1029.1873,-696.8752 1028.5759,-703.8484"/>
</g>
<!-- ../lib/js/_utils/_npm&#45;registry&#45;request.js -->
<g id="node19" class="node">
<title>../lib/js/_utils/_npm&#45;registry&#45;request.js</title>
<path fill="none" stroke="#cfffac" d="M1551.5557,-821.2357C1551.5557,-821.2357 1320.5371,-821.2357 1320.5371,-821.2357 1316.5041,-821.2357 1312.4712,-817.2028 1312.4712,-813.1698 1312.4712,-813.1698 1312.4712,-805.104 1312.4712,-805.104 1312.4712,-801.071 1316.5041,-797.0381 1320.5371,-797.0381 1320.5371,-797.0381 1551.5557,-797.0381 1551.5557,-797.0381 1555.5886,-797.0381 1559.6216,-801.071 1559.6216,-805.104 1559.6216,-805.104 1559.6216,-813.1698 1559.6216,-813.1698 1559.6216,-817.2028 1555.5886,-821.2357 1551.5557,-821.2357"/>
<text text-anchor="middle" x="1436.0464" y="-805.9862" font-family="Arial" font-size="14.00" fill="#cfffac">../lib/js/_utils/_npm&#45;registry&#45;request.js</text>
</g>
<!-- ../lib/js/_utils/_check&#45;context&#45;version.js&#45;&gt;../lib/js/_utils/_npm&#45;registry&#45;request.js -->
<g id="edge17" class="edge">
<title>../lib/js/_utils/_check&#45;context&#45;version.js&#45;&gt;../lib/js/_utils/_npm&#45;registry&#45;request.js</title>
<path fill="none" stroke="#757575" d="M982.6426,-874.5568C1066.5627,-871.9754 1178.6099,-865.5937 1276.5088,-850.1369 1314.36,-844.1607 1356.2963,-833.2076 1387.6706,-824.1251"/>
<polygon fill="#757575" stroke="#757575" points="1388.8573,-827.4245 1397.4674,-821.2507 1386.8865,-820.7077 1388.8573,-827.4245"/>
</g>
<!-- ../lib/js/_publish/_form&#45;auth&#45;token.js -->
<g id="node16" class="node">
<title>../lib/js/_publish/_form&#45;auth&#45;token.js</title>
<path fill="none" stroke="#cfffac" d="M1261.9357,-208.2357C1261.9357,-208.2357 1041.6415,-208.2357 1041.6415,-208.2357 1037.6085,-208.2357 1033.5756,-204.2028 1033.5756,-200.1698 1033.5756,-200.1698 1033.5756,-192.104 1033.5756,-192.104 1033.5756,-188.071 1037.6085,-184.0381 1041.6415,-184.0381 1041.6415,-184.0381 1261.9357,-184.0381 1261.9357,-184.0381 1265.9686,-184.0381 1270.0016,-188.071 1270.0016,-192.104 1270.0016,-192.104 1270.0016,-200.1698 1270.0016,-200.1698 1270.0016,-204.2028 1265.9686,-208.2357 1261.9357,-208.2357"/>
<text text-anchor="middle" x="1151.7886" y="-192.9862" font-family="Arial" font-size="14.00" fill="#cfffac">../lib/js/_publish/_form&#45;auth&#45;token.js</text>
</g>
<!-- ../lib/js/_publish/_set&#45;auth&#45;token.js&#45;&gt;../lib/js/_publish/_form&#45;auth&#45;token.js -->
<g id="edge16" class="edge">
<title>../lib/js/_publish/_set&#45;auth&#45;token.js&#45;&gt;../lib/js/_publish/_form&#45;auth&#45;token.js</title>
<path fill="none" stroke="#757575" d="M968.6067,-196.1369C986.5431,-196.1369 1005.2017,-196.1369 1023.4497,-196.1369"/>
<polygon fill="#757575" stroke="#757575" points="1023.5382,-199.637 1033.5381,-196.1369 1023.5381,-192.637 1023.5382,-199.637"/>
</g>
<!-- ../lib/js/_utils/_check&#45;new&#45;version.js&#45;&gt;../lib/js/_utils/_error.js -->
<g id="edge20" class="edge">
<title>../lib/js/_utils/_check&#45;new&#45;version.js&#45;&gt;../lib/js/_utils/_error.js</title>
<path fill="none" stroke="#757575" d="M1207.3222,-647.0566C1230.624,-639.8775 1256.8214,-628.8121 1276.5088,-612.1369 1361.639,-540.0319 1411.7936,-410.3578 1429.1337,-358.97"/>
<polygon fill="#757575" stroke="#757575" points="1432.5338,-359.8345 1432.3366,-349.2415 1425.8849,-357.6454 1432.5338,-359.8345"/>
</g>
<!-- ../lib/js/_utils/_get&#45;latest&#45;version.js&#45;&gt;../lib/js/_utils/_npm&#45;registry&#45;request.js -->
<g id="edge27" class="edge">
<title>../lib/js/_utils/_get&#45;latest&#45;version.js&#45;&gt;../lib/js/_utils/_npm&#45;registry&#45;request.js</title>
<path fill="none" stroke="#757575" d="M1186.9293,-723.2519C1238.4965,-741.0301 1334.663,-774.1842 1391.2412,-793.69"/>
<polygon fill="#757575" stroke="#757575" points="1390.3913,-797.0991 1400.986,-797.0496 1392.6728,-790.4813 1390.3913,-797.0991"/>
</g>
<!-- ../lib/js/_utils/_current&#45;working&#45;directory.js -->
<g id="node24" class="node">
<title>../lib/js/_utils/_current&#45;working&#45;directory.js</title>
<path fill="none" stroke="#cfffac" d="M982.8552,-1014.2357C982.8552,-1014.2357 727.5765,-1014.2357 727.5765,-1014.2357 723.5435,-1014.2357 719.5106,-1010.2028 719.5106,-1006.1698 719.5106,-1006.1698 719.5106,-998.104 719.5106,-998.104 719.5106,-994.071 723.5435,-990.0381 727.5765,-990.0381 727.5765,-990.0381 982.8552,-990.0381 982.8552,-990.0381 986.8881,-990.0381 990.9211,-994.071 990.9211,-998.104 990.9211,-998.104 990.9211,-1006.1698 990.9211,-1006.1698 990.9211,-1010.2028 986.8881,-1014.2357 982.8552,-1014.2357"/>
<text text-anchor="middle" x="855.2158" y="-998.9862" font-family="Arial" font-size="14.00" fill="#cfffac">../lib/js/_utils/_current&#45;working&#45;directory.js</text>
</g>
<!-- ../lib/js/_utils/_generate&#45;context&#45;config.js -->
<g id="node26" class="node">
<title>../lib/js/_utils/_generate&#45;context&#45;config.js</title>
<path fill="none" stroke="#c6c5fe" d="M660.5244,-494.2357C660.5244,-494.2357 411.6308,-494.2357 411.6308,-494.2357 407.5979,-494.2357 403.5649,-490.2028 403.5649,-486.1698 403.5649,-486.1698 403.5649,-478.104 403.5649,-478.104 403.5649,-474.071 407.5979,-470.0381 411.6308,-470.0381 411.6308,-470.0381 660.5244,-470.0381 660.5244,-470.0381 664.5574,-470.0381 668.5903,-474.071 668.5903,-478.104 668.5903,-478.104 668.5903,-486.1698 668.5903,-486.1698 668.5903,-490.2028 664.5574,-494.2357 660.5244,-494.2357"/>
<text text-anchor="middle" x="536.0776" y="-478.9862" font-family="Arial" font-size="14.00" fill="#c6c5fe">../lib/js/_utils/_generate&#45;context&#45;config.js</text>
</g>
<!-- ../lib/js/_utils/_generate&#45;context&#45;config.js&#45;&gt;../lib/js/_utils/_check&#45;exists.js -->
<g id="edge21" class="edge">
<title>../lib/js/_utils/_generate&#45;context&#45;config.js&#45;&gt;../lib/js/_utils/_check&#45;exists.js</title>
<path fill="none" stroke="#757575" d="M630.1035,-494.2165C668.0791,-499.0953 712.0493,-504.7442 750.9977,-509.7479"/>
<polygon fill="#757575" stroke="#757575" points="750.9465,-513.27 761.311,-511.0729 751.8385,-506.3271 750.9465,-513.27"/>
</g>
<!-- ../lib/js/_utils/_generate&#45;context&#45;config.js&#45;&gt;../lib/js/_utils/_check&#45;reserved&#45;keys.js -->
<g id="edge22" class="edge">
<title>../lib/js/_utils/_generate&#45;context&#45;config.js&#45;&gt;../lib/js/_utils/_check&#45;reserved&#45;keys.js</title>
<path fill="none" stroke="#757575" d="M668.6484,-481.7215C686.0422,-481.667 703.8768,-481.6111 721.2929,-481.5565"/>
<polygon fill="#757575" stroke="#757575" points="721.5034,-485.056 731.4924,-481.5246 721.4814,-478.056 721.5034,-485.056"/>
</g>
<!-- ../lib/js/_utils/_generate&#45;context&#45;config.js&#45;&gt;../lib/js/_utils/_deduped&#45;array&#45;merge.js -->
<g id="edge23" class="edge">
<title>../lib/js/_utils/_generate&#45;context&#45;config.js&#45;&gt;../lib/js/_utils/_deduped&#45;array&#45;merge.js</title>
<path fill="none" stroke="#757575" d="M625.8247,-470.0446C666.1902,-464.6058 713.981,-458.1666 755.4649,-452.5771"/>
<polygon fill="#757575" stroke="#757575" points="756.1469,-456.017 765.59,-451.2129 755.2121,-449.0796 756.1469,-456.017"/>
</g>
<!-- ../lib/js/_utils/_get&#45;toolkit&#45;locations.js -->
<g id="node27" class="node">
<title>../lib/js/_utils/_get&#45;toolkit&#45;locations.js</title>
<path fill="none" stroke="#cfffac" d="M344.4951,-608.2357C344.4951,-608.2357 122.5518,-608.2357 122.5518,-608.2357 118.5188,-608.2357 114.4859,-604.2028 114.4859,-600.1698 114.4859,-600.1698 114.4859,-592.104 114.4859,-592.104 114.4859,-588.071 118.5188,-584.0381 122.5518,-584.0381 122.5518,-584.0381 344.4951,-584.0381 344.4951,-584.0381 348.528,-584.0381 352.561,-588.071 352.561,-592.104 352.561,-592.104 352.561,-600.1698 352.561,-600.1698 352.561,-604.2028 348.528,-608.2357 344.4951,-608.2357"/>
<text text-anchor="middle" x="233.5234" y="-592.9862" font-family="Arial" font-size="14.00" fill="#cfffac">../lib/js/_utils/_get&#45;toolkit&#45;locations.js</text>
</g>
<!-- ../lib/js/_utils/_get&#45;toolkit&#45;names.js -->
<g id="node28" class="node">
<title>../lib/js/_utils/_get&#45;toolkit&#45;names.js</title>
<path fill="none" stroke="#c6c5fe" d="M338.2605,-566.2357C338.2605,-566.2357 128.7864,-566.2357 128.7864,-566.2357 124.7534,-566.2357 120.7205,-562.2028 120.7205,-558.1698 120.7205,-558.1698 120.7205,-550.104 120.7205,-550.104 120.7205,-546.071 124.7534,-542.0381 128.7864,-542.0381 128.7864,-542.0381 338.2605,-542.0381 338.2605,-542.0381 342.2934,-542.0381 346.3264,-546.071 346.3264,-550.104 346.3264,-550.104 346.3264,-558.1698 346.3264,-558.1698 346.3264,-562.2028 342.2934,-566.2357 338.2605,-566.2357"/>
<text text-anchor="middle" x="233.5234" y="-550.9862" font-family="Arial" font-size="14.00" fill="#c6c5fe">../lib/js/_utils/_get&#45;toolkit&#45;names.js</text>
</g>
<!-- ../lib/js/_utils/_get&#45;toolkit&#45;names.js&#45;&gt;../lib/js/_utils/_check&#45;exists.js -->
<g id="edge29" class="edge">
<title>../lib/js/_utils/_get&#45;toolkit&#45;names.js&#45;&gt;../lib/js/_utils/_check&#45;exists.js</title>
<path fill="none" stroke="#757575" d="M346.4677,-548.5051C460.3609,-542.8259 634.9322,-534.1211 747.0798,-528.529"/>
<polygon fill="#757575" stroke="#757575" points="747.5836,-532.0083 757.3968,-528.0145 747.2349,-525.017 747.5836,-532.0083"/>
</g>
<!-- ../lib/js/_validate.js -->
<g id="node29" class="node">
<title>../lib/js/_validate.js</title>
<path fill="none" stroke="#c6c5fe" d="M290.0646,-850.2357C290.0646,-850.2357 176.9823,-850.2357 176.9823,-850.2357 172.9493,-850.2357 168.9164,-846.2028 168.9164,-842.1698 168.9164,-842.1698 168.9164,-834.104 168.9164,-834.104 168.9164,-830.071 172.9493,-826.0381 176.9823,-826.0381 176.9823,-826.0381 290.0646,-826.0381 290.0646,-826.0381 294.0975,-826.0381 298.1305,-830.071 298.1305,-834.104 298.1305,-834.104 298.1305,-842.1698 298.1305,-842.1698 298.1305,-846.2028 294.0975,-850.2357 290.0646,-850.2357"/>
<text text-anchor="middle" x="233.5234" y="-834.9862" font-family="Arial" font-size="14.00" fill="#c6c5fe">../lib/js/_validate.js</text>
</g>
<!-- ../lib/js/_validate.js&#45;&gt;../lib/js/_utils/_error.js -->
<g id="edge30" class="edge">
<title>../lib/js/_validate.js&#45;&gt;../lib/js/_utils/_error.js</title>
<path fill="none" stroke="#757575" d="M298.4397,-840.0135C501.6784,-844.6156 1121.4192,-848.602 1276.5088,-732.1369 1401.996,-637.9018 1429.0643,-428.5148 1434.6538,-359.6049"/>
<polygon fill="#757575" stroke="#757575" points="1438.158,-359.6762 1435.4009,-349.4464 1431.1768,-359.1627 1438.158,-359.6762"/>
</g>
<!-- ../lib/js/_validate.js&#45;&gt;../lib/js/_utils/_get&#45;license.js -->
<g id="edge31" class="edge">
<title>../lib/js/_validate.js&#45;&gt;../lib/js/_utils/_get&#45;license.js</title>
<path fill="none" stroke="#757575" d="M248.3157,-825.9676C274.4167,-803.5448 328.206,-752.8733 352.792,-697.1369 377.9331,-640.142 345.0276,-463.4671 388.792,-419.1369 400.8514,-406.9216 416.5754,-399.6332 433.2485,-395.5369"/>
<polygon fill="#757575" stroke="#757575" points="434.0746,-398.9401 443.1546,-393.4808 432.652,-392.0862 434.0746,-398.9401"/>
</g>
<!-- ../lib/js/_validate.js&#45;&gt;../lib/js/_utils/_get&#45;packages.js -->
<g id="edge32" class="edge">
<title>../lib/js/_validate.js&#45;&gt;../lib/js/_utils/_get&#45;packages.js</title>
<path fill="none" stroke="#757575" d="M248.409,-826.0082C274.6578,-803.6499 328.6737,-753.0773 352.792,-697.1369 381.1234,-631.4245 338.946,-428.4805 388.792,-377.1369 398.8785,-366.7473 411.6109,-359.9011 425.3465,-355.5446"/>
<polygon fill="#757575" stroke="#757575" points="426.2689,-358.921 434.9958,-352.9134 424.4273,-352.1675 426.2689,-358.921"/>
</g>
<!-- ../lib/js/_validate/_check&#45;context&#45;brands.js -->
<g id="node30" class="node">
<title>../lib/js/_validate/_check&#45;context&#45;brands.js</title>
<path fill="none" stroke="#cfffac" d="M665.6348,-890.2357C665.6348,-890.2357 406.5205,-890.2357 406.5205,-890.2357 402.4875,-890.2357 398.4546,-886.2028 398.4546,-882.1698 398.4546,-882.1698 398.4546,-874.104 398.4546,-874.104 398.4546,-870.071 402.4875,-866.0381 406.5205,-866.0381 406.5205,-866.0381 665.6348,-866.0381 665.6348,-866.0381 669.6678,-866.0381 673.7007,-870.071 673.7007,-874.104 673.7007,-874.104 673.7007,-882.1698 673.7007,-882.1698 673.7007,-886.2028 669.6678,-890.2357 665.6348,-890.2357"/>
<text text-anchor="middle" x="536.0776" y="-874.9862" font-family="Arial" font-size="14.00" fill="#cfffac">../lib/js/_validate/_check&#45;context&#45;brands.js</text>
</g>
<!-- ../lib/js/_validate.js&#45;&gt;../lib/js/_validate/_check&#45;context&#45;brands.js -->
<g id="edge33" class="edge">
<title>../lib/js/_validate.js&#45;&gt;../lib/js/_validate/_check&#45;context&#45;brands.js</title>
<path fill="none" stroke="#757575" d="M298.4289,-846.7179C338.1394,-851.9679 389.7913,-858.7967 434.7931,-864.7463"/>
<polygon fill="#757575" stroke="#757575" points="434.509,-868.2391 444.8815,-866.0801 435.4265,-861.2995 434.509,-868.2391"/>
</g>
<!-- ../lib/js/_validate/_check&#45;context&#45;structure.js -->
<g id="node31" class="node">
<title>../lib/js/_validate/_check&#45;context&#45;structure.js</title>
<path fill="none" stroke="#c6c5fe" d="M671.2902,-692.2357C671.2902,-692.2357 400.8651,-692.2357 400.8651,-692.2357 396.8322,-692.2357 392.7992,-688.2028 392.7992,-684.1698 392.7992,-684.1698 392.7992,-676.104 392.7992,-676.104 392.7992,-672.071 396.8322,-668.0381 400.8651,-668.0381 400.8651,-668.0381 671.2902,-668.0381 671.2902,-668.0381 675.3231,-668.0381 679.356,-672.071 679.356,-676.104 679.356,-676.104 679.356,-684.1698 679.356,-684.1698 679.356,-688.2028 675.3231,-692.2357 671.2902,-692.2357"/>
<text text-anchor="middle" x="536.0776" y="-676.9862" font-family="Arial" font-size="14.00" fill="#c6c5fe">../lib/js/_validate/_check&#45;context&#45;structure.js</text>
</g>
<!-- ../lib/js/_validate.js&#45;&gt;../lib/js/_validate/_check&#45;context&#45;structure.js -->
<g id="edge34" class="edge">
<title>../lib/js/_validate.js&#45;&gt;../lib/js/_validate/_check&#45;context&#45;structure.js</title>
<path fill="none" stroke="#757575" d="M298.3572,-832.5104C317.8595,-827.9459 337.9865,-819.9661 352.792,-806.1369 388.8444,-772.462 350.7772,-732.5798 388.792,-701.1369 390.1945,-699.9768 391.6315,-698.8647 393.0998,-697.7988"/>
<polygon fill="#757575" stroke="#757575" points="395.3122,-700.5375 401.8326,-692.1867 391.5278,-694.6486 395.3122,-700.5375"/>
</g>
<!-- ../lib/js/_validate/_check&#45;license.js -->
<g id="node32" class="node">
<title>../lib/js/_validate/_check&#45;license.js</title>
<path fill="none" stroke="#cfffac" d="M641.1075,-932.2357C641.1075,-932.2357 431.0478,-932.2357 431.0478,-932.2357 427.0149,-932.2357 422.9819,-928.2028 422.9819,-924.1698 422.9819,-924.1698 422.9819,-916.104 422.9819,-916.104 422.9819,-912.071 427.0149,-908.0381 431.0478,-908.0381 431.0478,-908.0381 641.1075,-908.0381 641.1075,-908.0381 645.1404,-908.0381 649.1734,-912.071 649.1734,-916.104 649.1734,-916.104 649.1734,-924.1698 649.1734,-924.1698 649.1734,-928.2028 645.1404,-932.2357 641.1075,-932.2357"/>
<text text-anchor="middle" x="536.0776" y="-916.9862" font-family="Arial" font-size="14.00" fill="#cfffac">../lib/js/_validate/_check&#45;license.js</text>
</g>
<!-- ../lib/js/_validate.js&#45;&gt;../lib/js/_validate/_check&#45;license.js -->
<g id="edge35" class="edge">
<title>../lib/js/_validate.js&#45;&gt;../lib/js/_validate/_check&#45;license.js</title>
<path fill="none" stroke="#757575" d="M259.0038,-850.2807C289.2687,-864.1986 341.606,-886.6862 388.792,-899.1369 398.9261,-901.8109 409.548,-904.1649 420.2485,-906.233"/>
<polygon fill="#757575" stroke="#757575" points="419.616,-909.6753 430.0859,-908.0529 420.8895,-902.7921 419.616,-909.6753"/>
</g>
<!-- ../lib/js/_validate/_check&#45;naming.js -->
<g id="node33" class="node">
<title>../lib/js/_validate/_check&#45;naming.js</title>
<path fill="none" stroke="#c6c5fe" d="M961.5839,-1094.2357C961.5839,-1094.2357 748.8477,-1094.2357 748.8477,-1094.2357 744.8148,-1094.2357 740.7818,-1090.2028 740.7818,-1086.1698 740.7818,-1086.1698 740.7818,-1078.104 740.7818,-1078.104 740.7818,-1074.071 744.8148,-1070.0381 748.8477,-1070.0381 748.8477,-1070.0381 961.5839,-1070.0381 961.5839,-1070.0381 965.6169,-1070.0381 969.6498,-1074.071 969.6498,-1078.104 969.6498,-1078.104 969.6498,-1086.1698 969.6498,-1086.1698 969.6498,-1090.2028 965.6169,-1094.2357 961.5839,-1094.2357"/>
<text text-anchor="middle" x="855.2158" y="-1078.9862" font-family="Arial" font-size="14.00" fill="#c6c5fe">../lib/js/_validate/_check&#45;naming.js</text>
</g>
<!-- ../lib/js/_validate.js&#45;&gt;../lib/js/_validate/_check&#45;naming.js -->
<g id="edge36" class="edge">
<title>../lib/js/_validate.js&#45;&gt;../lib/js/_validate/_check&#45;naming.js</title>
<path fill="none" stroke="#757575" d="M239.475,-850.4585C256.8791,-884.9803 311.3836,-982.8763 388.792,-1025.1369 494.0147,-1082.5826 632.1288,-1092.859 730.7,-1091.1905"/>
<polygon fill="#757575" stroke="#757575" points="730.7896,-1094.6895 740.7129,-1090.9777 730.6408,-1087.691 730.7896,-1094.6895"/>
</g>
<!-- ../lib/js/_validate/_check&#45;package&#45;context.js -->
<g id="node34" class="node">
<title>../lib/js/_validate/_check&#45;package&#45;context.js</title>
<path fill="none" stroke="#c6c5fe" d="M670.7589,-974.2357C670.7589,-974.2357 401.3963,-974.2357 401.3963,-974.2357 397.3634,-974.2357 393.3305,-970.2028 393.3305,-966.1698 393.3305,-966.1698 393.3305,-958.104 393.3305,-958.104 393.3305,-954.071 397.3634,-950.0381 401.3963,-950.0381 401.3963,-950.0381 670.7589,-950.0381 670.7589,-950.0381 674.7919,-950.0381 678.8248,-954.071 678.8248,-958.104 678.8248,-958.104 678.8248,-966.1698 678.8248,-966.1698 678.8248,-970.2028 674.7919,-974.2357 670.7589,-974.2357"/>
<text text-anchor="middle" x="536.0776" y="-958.9862" font-family="Arial" font-size="14.00" fill="#c6c5fe">../lib/js/_validate/_check&#45;package&#45;context.js</text>
</g>
<!-- ../lib/js/_validate.js&#45;&gt;../lib/js/_validate/_check&#45;package&#45;context.js -->
<g id="edge37" class="edge">
<title>../lib/js/_validate.js&#45;&gt;../lib/js/_validate/_check&#45;package&#45;context.js</title>
<path fill="none" stroke="#757575" d="M247.302,-850.4351C273.0376,-872.641 331.0477,-919.1595 388.792,-941.1369 395.0363,-943.5135 401.5224,-945.6242 408.1378,-947.4985"/>
<polygon fill="#757575" stroke="#757575" points="407.3473,-950.9096 417.9095,-950.0788 409.1345,-944.1416 407.3473,-950.9096"/>
</g>
<!-- ../lib/js/_validate/_check&#45;package&#45;structure.js -->
<g id="node35" class="node">
<title>../lib/js/_validate/_check&#45;package&#45;structure.js</title>
<path fill="none" stroke="#c6c5fe" d="M675.0833,-1016.2357C675.0833,-1016.2357 397.0719,-1016.2357 397.0719,-1016.2357 393.039,-1016.2357 389.006,-1012.2028 389.006,-1008.1698 389.006,-1008.1698 389.006,-1000.104 389.006,-1000.104 389.006,-996.071 393.039,-992.0381 397.0719,-992.0381 397.0719,-992.0381 675.0833,-992.0381 675.0833,-992.0381 679.1163,-992.0381 683.1492,-996.071 683.1492,-1000.104 683.1492,-1000.104 683.1492,-1008.1698 683.1492,-1008.1698 683.1492,-1012.2028 679.1163,-1016.2357 675.0833,-1016.2357"/>
<text text-anchor="middle" x="536.0776" y="-1000.9862" font-family="Arial" font-size="14.00" fill="#c6c5fe">../lib/js/_validate/_check&#45;package&#45;structure.js</text>
</g>
<!-- ../lib/js/_validate.js&#45;&gt;../lib/js/_validate/_check&#45;package&#45;structure.js -->
<g id="edge38" class="edge">
<title>../lib/js/_validate.js&#45;&gt;../lib/js/_validate/_check&#45;package&#45;structure.js</title>
<path fill="none" stroke="#757575" d="M242.3643,-850.4766C263.7678,-879.287 321.5898,-950.9708 388.792,-983.1369 392.9674,-985.1354 397.28,-986.9571 401.6902,-988.6168"/>
<polygon fill="#757575" stroke="#757575" points="400.8906,-992.0434 411.4854,-991.9973 403.1744,-985.4263 400.8906,-992.0434"/>
</g>
<!-- ../lib/js/_validate/_check&#45;publication.js -->
<g id="node36" class="node">
<title>../lib/js/_validate/_check&#45;publication.js</title>
<path fill="none" stroke="#c6c5fe" d="M652.9663,-734.2357C652.9663,-734.2357 419.189,-734.2357 419.189,-734.2357 415.1561,-734.2357 411.1231,-730.2028 411.1231,-726.1698 411.1231,-726.1698 411.1231,-718.104 411.1231,-718.104 411.1231,-714.071 415.1561,-710.0381 419.189,-710.0381 419.189,-710.0381 652.9663,-710.0381 652.9663,-710.0381 656.9992,-710.0381 661.0322,-714.071 661.0322,-718.104 661.0322,-718.104 661.0322,-726.1698 661.0322,-726.1698 661.0322,-730.2028 656.9992,-734.2357 652.9663,-734.2357"/>
<text text-anchor="middle" x="536.0776" y="-718.9862" font-family="Arial" font-size="14.00" fill="#c6c5fe">../lib/js/_validate/_check&#45;publication.js</text>
</g>
<!-- ../lib/js/_validate.js&#45;&gt;../lib/js/_validate/_check&#45;publication.js -->
<g id="edge39" class="edge">
<title>../lib/js/_validate.js&#45;&gt;../lib/js/_validate/_check&#45;publication.js</title>
<path fill="none" stroke="#757575" d="M286.0654,-826.0643C307.0628,-820.7173 331.3124,-813.8787 352.792,-806.1369 407.2028,-786.5259 467.7321,-757.2361 503.814,-738.9317"/>
<polygon fill="#757575" stroke="#757575" points="505.5652,-741.9675 512.8795,-734.3025 502.3817,-735.7332 505.5652,-741.9675"/>
</g>
<!-- ../lib/js/_validate/_check&#45;context&#45;structure.js&#45;&gt;../lib/js/_utils/_check&#45;exists.js -->
<g id="edge42" class="edge">
<title>../lib/js/_validate/_check&#45;context&#45;structure.js&#45;&gt;../lib/js/_utils/_check&#45;exists.js</title>
<path fill="none" stroke="#757575" d="M657.6695,-668.0738C666.5188,-665.6019 675.1751,-662.6525 683.3633,-659.1369 747.5509,-631.5784 808.0602,-573.5999 837.154,-543.0075"/>
<polygon fill="#757575" stroke="#757575" points="839.9005,-545.1951 844.1812,-535.5035 834.7911,-540.4103 839.9005,-545.1951"/>
</g>
<!-- ../lib/js/_validate/_check&#45;naming.js&#45;&gt;../lib/js/_utils/_get&#45;package&#45;name.js -->
<g id="edge43" class="edge">
<title>../lib/js/_validate/_check&#45;naming.js&#45;&gt;../lib/js/_utils/_get&#45;package&#45;name.js</title>
<path fill="none" stroke="#757575" d="M928.6148,-1070.0435C948.972,-1066.1609 970.9916,-1061.465 991.0684,-1056.1369 1032.6585,-1045.0994 1079.0485,-1028.7773 1111.2569,-1016.78"/>
<polygon fill="#757575" stroke="#757575" points="1112.6446,-1019.9976 1120.7764,-1013.2061 1110.1842,-1013.4442 1112.6446,-1019.9976"/>
</g>
<!-- ../lib/js/_validate/_check&#45;package&#45;context.js&#45;&gt;../lib/js/_utils/_check&#45;context&#45;version.js -->
<g id="edge44" class="edge">
<title>../lib/js/_validate/_check&#45;package&#45;context.js&#45;&gt;../lib/js/_utils/_check&#45;context&#45;version.js</title>
<path fill="none" stroke="#757575" d="M664.2105,-950.0099C670.8565,-947.4977 677.2883,-944.5617 683.3633,-941.1369 705.3735,-928.7284 697.4263,-909.6744 719.3633,-897.1369 722.4616,-895.3661 725.6615,-893.7306 728.9405,-892.2205"/>
<polygon fill="#757575" stroke="#757575" points="730.4887,-895.3671 738.3722,-888.2888 727.7953,-888.906 730.4887,-895.3671"/>
</g>
<!-- ../lib/js/_validate/_check&#45;file&#45;naming.js -->
<g id="node39" class="node">
<title>../lib/js/_validate/_check&#45;file&#45;naming.js</title>
<path fill="none" stroke="#cfffac" d="M972.6421,-972.2357C972.6421,-972.2357 737.7895,-972.2357 737.7895,-972.2357 733.7566,-972.2357 729.7236,-968.2028 729.7236,-964.1698 729.7236,-964.1698 729.7236,-956.104 729.7236,-956.104 729.7236,-952.071 733.7566,-948.0381 737.7895,-948.0381 737.7895,-948.0381 972.6421,-948.0381 972.6421,-948.0381 976.6751,-948.0381 980.708,-952.071 980.708,-956.104 980.708,-956.104 980.708,-964.1698 980.708,-964.1698 980.708,-968.2028 976.6751,-972.2357 972.6421,-972.2357"/>
<text text-anchor="middle" x="855.2158" y="-956.9862" font-family="Arial" font-size="14.00" fill="#cfffac">../lib/js/_validate/_check&#45;file&#45;naming.js</text>
</g>
<!-- ../lib/js/_validate/_check&#45;package&#45;context.js&#45;&gt;../lib/js/_validate/_check&#45;file&#45;naming.js -->
<g id="edge45" class="edge">
<title>../lib/js/_validate/_check&#45;package&#45;context.js&#45;&gt;../lib/js/_validate/_check&#45;file&#45;naming.js</title>
<path fill="none" stroke="#757575" d="M678.8449,-961.2422C692.3345,-961.1577 705.986,-961.0721 719.408,-960.988"/>
<polygon fill="#757575" stroke="#757575" points="719.6429,-964.4867 729.6208,-960.924 719.599,-957.4868 719.6429,-964.4867"/>
</g>
<!-- ../lib/js/_validate/_check&#45;package&#45;structure.js&#45;&gt;../lib/js/_utils/_get&#45;package&#45;name.js -->
<g id="edge47" class="edge">
<title>../lib/js/_validate/_check&#45;package&#45;structure.js&#45;&gt;../lib/js/_utils/_get&#45;package&#45;name.js</title>
<path fill="none" stroke="#757575" d="M634.3823,-1016.2163C661.8424,-1019.076 691.728,-1021.7083 719.3633,-1023.1369 839.9601,-1029.3709 870.5898,-1031.3444 991.0684,-1023.1369 1016.5046,-1021.4041 1044.0491,-1018.1457 1069.03,-1014.6574"/>
<polygon fill="#757575" stroke="#757575" points="1069.7923,-1018.0842 1079.1972,-1013.2059 1068.8029,-1011.1544 1069.7923,-1018.0842"/>
</g>
<!-- ../lib/js/_validate/_check&#45;package&#45;structure.js&#45;&gt;../lib/js/_utils/_current&#45;working&#45;directory.js -->
<g id="edge46" class="edge">
<title>../lib/js/_validate/_check&#45;package&#45;structure.js&#45;&gt;../lib/js/_utils/_current&#45;working&#45;directory.js</title>
<path fill="none" stroke="#757575" d="M683.5025,-1003.213C692.0717,-1003.1593 700.6879,-1003.1053 709.2514,-1003.0516"/>
<polygon fill="#757575" stroke="#757575" points="709.2963,-1006.5515 719.2741,-1002.9888 709.2524,-999.5517 709.2963,-1006.5515"/>
</g>
<!-- ../lib/js/_validate/_check&#45;publication.js&#45;&gt;../lib/js/_utils/_check&#45;current&#45;version.js -->
<g id="edge48" class="edge">
<title>../lib/js/_validate/_check&#45;publication.js&#45;&gt;../lib/js/_utils/_check&#45;current&#45;version.js</title>
<path fill="none" stroke="#757575" d="M640.1338,-710.0729C672.3607,-706.3366 708.0386,-702.2002 740.9202,-698.388"/>
<polygon fill="#757575" stroke="#757575" points="741.4978,-701.8446 751.0282,-697.2161 740.6916,-694.8912 741.4978,-701.8446"/>
</g>
<!-- ../lib/js/_validate/_check&#45;changed&#45;files.js -->
<g id="node37" class="node">
<title>../lib/js/_validate/_check&#45;changed&#45;files.js</title>
<path fill="none" stroke="#c6c5fe" d="M979.942,-930.2357C979.942,-930.2357 730.4896,-930.2357 730.4896,-930.2357 726.4567,-930.2357 722.4237,-926.2028 722.4237,-922.1698 722.4237,-922.1698 722.4237,-914.104 722.4237,-914.104 722.4237,-910.071 726.4567,-906.0381 730.4896,-906.0381 730.4896,-906.0381 979.942,-906.0381 979.942,-906.0381 983.9749,-906.0381 988.0079,-910.071 988.0079,-914.104 988.0079,-914.104 988.0079,-922.1698 988.0079,-922.1698 988.0079,-926.2028 983.9749,-930.2357 979.942,-930.2357"/>
<text text-anchor="middle" x="855.2158" y="-914.9862" font-family="Arial" font-size="14.00" fill="#c6c5fe">../lib/js/_validate/_check&#45;changed&#45;files.js</text>
</g>
<!-- ../lib/js/_validate/_check&#45;publication.js&#45;&gt;../lib/js/_validate/_check&#45;changed&#45;files.js -->
<g id="edge49" class="edge">
<title>../lib/js/_validate/_check&#45;publication.js&#45;&gt;../lib/js/_validate/_check&#45;changed&#45;files.js</title>
<path fill="none" stroke="#757575" d="M661.0486,-732.8991C669.1746,-736.9068 676.7399,-741.9141 683.3633,-748.1369 733.0148,-794.7857 669.2164,-851.0211 719.3633,-897.1369 720.4887,-898.1718 721.6428,-899.1681 722.8235,-900.127"/>
<polygon fill="#757575" stroke="#757575" points="720.8019,-902.9841 730.9798,-905.927 724.8586,-897.2794 720.8019,-902.9841"/>
</g>
<!-- ../lib/js/_validate/_check&#45;changed&#45;files.js&#45;&gt;../lib/js/_utils/_get&#45;package&#45;name.js -->
<g id="edge40" class="edge">
<title>../lib/js/_validate/_check&#45;changed&#45;files.js&#45;&gt;../lib/js/_utils/_get&#45;package&#45;name.js</title>
<path fill="none" stroke="#757575" d="M950.7659,-930.2525C964.3912,-932.748 978.1554,-935.6911 991.0684,-939.1369 1035.3242,-950.9464 1084.1519,-970.8167 1116.2409,-984.8758"/>
<polygon fill="#757575" stroke="#757575" points="1115.0778,-988.1885 1125.6386,-989.0371 1117.912,-981.7879 1115.0778,-988.1885"/>
</g>
<!-- ../lib/js/_validate/_check&#45;publish&#45;file.js -->
<g id="node38" class="node">
<title>../lib/js/_validate/_check&#45;publish&#45;file.js</title>
<path fill="none" stroke="#cfffac" d="M1268.6635,-930.2357C1268.6635,-930.2357 1034.9136,-930.2357 1034.9136,-930.2357 1030.8807,-930.2357 1026.8478,-926.2028 1026.8478,-922.1698 1026.8478,-922.1698 1026.8478,-914.104 1026.8478,-914.104 1026.8478,-910.071 1030.8807,-906.0381 1034.9136,-906.0381 1034.9136,-906.0381 1268.6635,-906.0381 1268.6635,-906.0381 1272.6964,-906.0381 1276.7294,-910.071 1276.7294,-914.104 1276.7294,-914.104 1276.7294,-922.1698 1276.7294,-922.1698 1276.7294,-926.2028 1272.6964,-930.2357 1268.6635,-930.2357"/>
<text text-anchor="middle" x="1151.7886" y="-914.9862" font-family="Arial" font-size="14.00" fill="#cfffac">../lib/js/_validate/_check&#45;publish&#45;file.js</text>
</g>
<!-- ../lib/js/_validate/_check&#45;changed&#45;files.js&#45;&gt;../lib/js/_validate/_check&#45;publish&#45;file.js -->
<g id="edge41" class="edge">
<title>../lib/js/_validate/_check&#45;changed&#45;files.js&#45;&gt;../lib/js/_validate/_check&#45;publish&#45;file.js</title>
<path fill="none" stroke="#757575" d="M988.3207,-918.1369C997.7067,-918.1369 1007.1747,-918.1369 1016.5721,-918.1369"/>
<polygon fill="#757575" stroke="#757575" points="1016.7345,-921.637 1026.7344,-918.1369 1016.7344,-914.637 1016.7345,-921.637"/>
</g>
<!-- create.js -->
<g id="node40" class="node">
<title>create.js</title>
<path fill="none" stroke="#c6c5fe" d="M65.4718,-465.2357C65.4718,-465.2357 12.7831,-465.2357 12.7831,-465.2357 8.7502,-465.2357 4.7172,-461.2028 4.7172,-457.1698 4.7172,-457.1698 4.7172,-449.104 4.7172,-449.104 4.7172,-445.071 8.7502,-441.0381 12.7831,-441.0381 12.7831,-441.0381 65.4718,-441.0381 65.4718,-441.0381 69.5047,-441.0381 73.5377,-445.071 73.5377,-449.104 73.5377,-449.104 73.5377,-457.1698 73.5377,-457.1698 73.5377,-461.2028 69.5047,-465.2357 65.4718,-465.2357"/>
<text text-anchor="middle" x="39.1274" y="-449.9862" font-family="Arial" font-size="14.00" fill="#c6c5fe">create.js</text>
</g>
<!-- create.js&#45;&gt;../config/default.json -->
<g id="edge50" class="edge">
<title>create.js&#45;&gt;../config/default.json</title>
<path fill="none" stroke="#757575" d="M73.8815,-456.8913C95.9606,-459.2764 125.4944,-462.4669 153.1532,-465.4548"/>
<polygon fill="#757575" stroke="#757575" points="152.923,-468.9502 163.2411,-466.5445 153.6749,-461.9907 152.923,-468.9502"/>
</g>
<!-- create.js&#45;&gt;../lib/js/_create.js -->
<g id="edge51" class="edge">
<title>create.js&#45;&gt;../lib/js/_create.js</title>
<path fill="none" stroke="#757575" d="M44.2201,-440.9257C54.4402,-417.6748 79.4832,-366.5674 114.2549,-335.1369 135.6398,-315.8069 164.3948,-301.0977 188.3122,-291.0818"/>
<polygon fill="#757575" stroke="#757575" points="189.9315,-294.2024 197.8907,-287.2094 187.3078,-287.7127 189.9315,-294.2024"/>
</g>
<!-- create.js&#45;&gt;../lib/js/_utils/_error.js -->
<g id="edge53" class="edge">
<title>create.js&#45;&gt;../lib/js/_utils/_error.js</title>
<path fill="none" stroke="#757575" d="M39.5436,-440.811C41.8675,-380.0972 55.345,-113.6905 114.2549,-62.1369 255.5649,61.5272 348.2977,-38.1369 536.0776,-38.1369 536.0776,-38.1369 536.0776,-38.1369 855.2158,-38.1369 1042.7607,-38.1369 1116.7211,36.0516 1276.5088,-62.1369 1372.4189,-121.073 1416.7678,-260.6438 1430.8372,-314.9634"/>
<polygon fill="#757575" stroke="#757575" points="1427.505,-316.0663 1433.3209,-324.9221 1434.2969,-314.3723 1427.505,-316.0663"/>
</g>
<!-- create.js&#45;&gt;../lib/js/_utils/_current&#45;working&#45;directory.js -->
<g id="edge52" class="edge">
<title>create.js&#45;&gt;../lib/js/_utils/_current&#45;working&#45;directory.js</title>
<path fill="none" stroke="#757575" d="M70.9944,-440.9949C133.5947,-419.4419 273.4187,-383.0076 352.792,-453.1369 450.1223,-539.1319 296.4074,-651.8492 388.792,-743.1369 482.5006,-835.7329 587.3544,-685.9283 683.3633,-776.1369 750.7791,-839.4799 653.286,-916.3987 719.3633,-981.1369 720.3222,-982.0764 721.3046,-982.9847 722.3089,-983.8628"/>
<polygon fill="#757575" stroke="#757575" points="720.3333,-986.7574 730.4139,-990.0179 724.5668,-981.1826 720.3333,-986.7574"/>
</g>
<!-- create.js&#45;&gt;../lib/js/_utils/_get&#45;toolkit&#45;locations.js -->
<g id="edge54" class="edge">
<title>create.js&#45;&gt;../lib/js/_utils/_get&#45;toolkit&#45;locations.js</title>
<path fill="none" stroke="#757575" d="M53.4714,-465.4087C61.5134,-472.8326 71.2953,-482.8326 78.2549,-493.1369 100.5323,-526.1205 82.9512,-550.5549 114.2549,-575.1369 115.8981,-576.4273 117.5935,-577.6492 119.3345,-578.8059"/>
<polygon fill="#757575" stroke="#757575" points="117.9839,-582.0687 128.3895,-584.062 121.498,-576.0147 117.9839,-582.0687"/>
</g>
<!-- create.js&#45;&gt;../lib/js/_utils/_get&#45;toolkit&#45;names.js -->
<g id="edge55" class="edge">
<title>create.js&#45;&gt;../lib/js/_utils/_get&#45;toolkit&#45;names.js</title>
<path fill="none" stroke="#757575" d="M60.0218,-465.1897C75.0103,-473.7443 95.7434,-485.3917 114.2549,-495.1369 142.5875,-510.0523 175.2017,-526.1115 199.1563,-537.7038"/>
<polygon fill="#757575" stroke="#757575" points="197.6802,-540.8776 208.2077,-542.0709 200.7221,-534.5731 197.6802,-540.8776"/>
</g>
<!-- publish.js -->
<g id="node41" class="node">
<title>publish.js</title>
<path fill="none" stroke="#c6c5fe" d="M68.4277,-526.2357C68.4277,-526.2357 9.8272,-526.2357 9.8272,-526.2357 5.7943,-526.2357 1.7613,-522.2028 1.7613,-518.1698 1.7613,-518.1698 1.7613,-510.104 1.7613,-510.104 1.7613,-506.071 5.7943,-502.0381 9.8272,-502.0381 9.8272,-502.0381 68.4277,-502.0381 68.4277,-502.0381 72.4606,-502.0381 76.4936,-506.071 76.4936,-510.104 76.4936,-510.104 76.4936,-518.1698 76.4936,-518.1698 76.4936,-522.2028 72.4606,-526.2357 68.4277,-526.2357"/>
<text text-anchor="middle" x="39.1274" y="-510.9862" font-family="Arial" font-size="14.00" fill="#c6c5fe">publish.js</text>
</g>
<!-- publish.js&#45;&gt;../config/context.json -->
<g id="edge56" class="edge">
<title>publish.js&#45;&gt;../config/context.json</title>
<path fill="none" stroke="#757575" d="M42.2407,-526.5913C49.6904,-553.6748 71.2115,-618.0643 114.2549,-650.1369 125.3314,-658.3903 138.4992,-664.1263 151.9753,-668.0919"/>
<polygon fill="#757575" stroke="#757575" points="151.2559,-671.5216 161.817,-670.6773 153.0344,-664.7513 151.2559,-671.5216"/>
</g>
<!-- publish.js&#45;&gt;../config/default.json -->
<g id="edge57" class="edge">
<title>publish.js&#45;&gt;../config/default.json</title>
<path fill="none" stroke="#757575" d="M76.6089,-506.4245C101.5885,-501.2846 135.1593,-494.3769 164.8387,-488.2699"/>
<polygon fill="#757575" stroke="#757575" points="165.6473,-491.6769 174.7367,-486.2332 164.2365,-484.8205 165.6473,-491.6769"/>
</g>
<!-- publish.js&#45;&gt;../lib/js/_utils/_error.js -->
<g id="edge60" class="edge">
<title>publish.js&#45;&gt;../lib/js/_utils/_error.js</title>
<path fill="none" stroke="#757575" d="M55.2713,-501.7732C63.468,-494.6066 72.8179,-484.8859 78.2549,-474.1369 122.9745,-385.7251 57.9827,-335.6841 114.2549,-254.1369 229.8255,-86.6569 332.5927,-76.1369 536.0776,-76.1369 536.0776,-76.1369 536.0776,-76.1369 855.2158,-76.1369 1044.6726,-76.1369 1112.1264,-46.944 1276.5088,-141.1369 1350.5192,-183.5457 1404.1289,-274.5813 1425.6394,-315.9278"/>
<polygon fill="#757575" stroke="#757575" points="1422.5322,-317.5392 1430.1879,-324.8632 1428.7705,-314.3636 1422.5322,-317.5392"/>
</g>
<!-- publish.js&#45;&gt;../lib/js/_utils/_generate&#45;toolkit&#45;config.js -->
<g id="edge62" class="edge">
<title>publish.js&#45;&gt;../lib/js/_utils/_generate&#45;toolkit&#45;config.js</title>
<path fill="none" stroke="#757575" d="M49.3379,-502.0006C62.5688,-487.2899 87.1731,-463.2193 114.2549,-453.1369 223.7304,-412.3796 360.4603,-417.3473 448.0328,-426.8937"/>
<polygon fill="#757575" stroke="#757575" points="447.8682,-430.3974 458.1989,-428.0467 448.6571,-423.442 447.8682,-430.3974"/>
</g>
<!-- publish.js&#45;&gt;../lib/js/_publish.js -->
<g id="edge58" class="edge">
<title>publish.js&#45;&gt;../lib/js/_publish.js</title>
<path fill="none" stroke="#757575" d="M53.6298,-501.9698C61.7245,-494.5807 71.5064,-484.5807 78.2549,-474.1369 102.0848,-437.2583 80.849,-410.6316 114.2549,-382.1369 127.329,-370.9849 144.0865,-364.2891 160.8824,-360.3453"/>
<polygon fill="#757575" stroke="#757575" points="161.6521,-363.7604 170.7485,-358.3284 160.2501,-356.9023 161.6521,-363.7604"/>
</g>
<!-- publish.js&#45;&gt;../lib/js/_utils/_current&#45;working&#45;directory.js -->
<g id="edge59" class="edge">
<title>publish.js&#45;&gt;../lib/js/_utils/_current&#45;working&#45;directory.js</title>
<path fill="none" stroke="#757575" d="M44.2246,-526.417C54.1252,-548.5934 78.1992,-595.0659 114.2549,-617.1369 205.8157,-673.1846 272.0687,-584.3662 352.792,-655.1369 394.9815,-692.1247 348.7068,-736.8784 388.792,-776.1369 485.798,-871.1424 586.6726,-761.8106 683.3633,-857.1369 724.2291,-897.4261 676.25,-943.2623 719.3633,-981.1369 720.6884,-982.301 722.0502,-983.4154 723.4455,-984.482"/>
<polygon fill="#757575" stroke="#757575" points="721.528,-987.4102 731.7807,-990.081 725.4313,-981.5995 721.528,-987.4102"/>
</g>
<!-- publish.js&#45;&gt;../lib/js/_utils/_generate&#45;context&#45;config.js -->
<g id="edge61" class="edge">
<title>publish.js&#45;&gt;../lib/js/_utils/_generate&#45;context&#45;config.js</title>
<path fill="none" stroke="#757575" d="M76.3141,-512.0087C135.0515,-508.6192 252.8984,-501.7048 352.792,-495.1369 365.9835,-494.2696 379.7071,-493.3424 393.4449,-492.3974"/>
<polygon fill="#757575" stroke="#757575" points="393.7083,-495.8877 403.4433,-491.7068 393.2259,-488.9043 393.7083,-495.8877"/>
</g>
<!-- publish.js&#45;&gt;../lib/js/_utils/_get&#45;toolkit&#45;locations.js -->
<g id="edge63" class="edge">
<title>publish.js&#45;&gt;../lib/js/_utils/_get&#45;toolkit&#45;locations.js</title>
<path fill="none" stroke="#757575" d="M50.5537,-526.6513C64.2466,-540.8098 88.5769,-563.4183 114.2549,-575.1369 118.9754,-577.2912 123.8942,-579.2253 128.9293,-580.9616"/>
<polygon fill="#757575" stroke="#757575" points="128.1437,-584.384 138.7337,-584.0629 130.2548,-577.7099 128.1437,-584.384"/>
</g>
<!-- publish.js&#45;&gt;../lib/js/_utils/_get&#45;toolkit&#45;names.js -->
<g id="edge64" class="edge">
<title>publish.js&#45;&gt;../lib/js/_utils/_get&#45;toolkit&#45;names.js</title>
<path fill="none" stroke="#757575" d="M76.6089,-521.8493C101.5885,-526.9892 135.1593,-533.8969 164.8387,-540.0039"/>
<polygon fill="#757575" stroke="#757575" points="164.2365,-543.4533 174.7367,-542.0406 165.6473,-536.5969 164.2365,-543.4533"/>
</g>
<!-- validate.js -->
<g id="node42" class="node">
<title>validate.js</title>
<path fill="none" stroke="#c6c5fe" d="M70.3169,-728.2357C70.3169,-728.2357 7.938,-728.2357 7.938,-728.2357 3.9051,-728.2357 -.1279,-724.2028 -.1279,-720.1698 -.1279,-720.1698 -.1279,-712.104 -.1279,-712.104 -.1279,-708.071 3.9051,-704.0381 7.938,-704.0381 7.938,-704.0381 70.3169,-704.0381 70.3169,-704.0381 74.3498,-704.0381 78.3827,-708.071 78.3827,-712.104 78.3827,-712.104 78.3827,-720.1698 78.3827,-720.1698 78.3827,-724.2028 74.3498,-728.2357 70.3169,-728.2357"/>
<text text-anchor="middle" x="39.1274" y="-712.9862" font-family="Arial" font-size="14.00" fill="#c6c5fe">validate.js</text>
</g>
<!-- validate.js&#45;&gt;../config/context.json -->
<g id="edge65" class="edge">
<title>validate.js&#45;&gt;../config/context.json</title>
<path fill="none" stroke="#757575" d="M78.4664,-708.0423C103.1777,-702.9576 135.7339,-696.2586 164.6326,-690.3123"/>
<polygon fill="#757575" stroke="#757575" points="165.5937,-693.6879 174.6831,-688.2442 164.1828,-686.8316 165.5937,-693.6879"/>
</g>
<!-- validate.js&#45;&gt;../config/default.json -->
<g id="edge66" class="edge">
<title>validate.js&#45;&gt;../config/default.json</title>
<path fill="none" stroke="#757575" d="M41.0838,-703.8426C46.7606,-671.8454 66.005,-584.8795 114.2549,-533.1369 132.7408,-513.3128 159.3361,-499.2667 182.7239,-489.8665"/>
<polygon fill="#757575" stroke="#757575" points="184.0936,-493.0899 192.1785,-486.2427 181.5883,-486.5535 184.0936,-493.0899"/>
</g>
<!-- validate.js&#45;&gt;../lib/js/_utils/_error.js -->
<g id="edge68" class="edge">
<title>validate.js&#45;&gt;../lib/js/_utils/_error.js</title>
<path fill="none" stroke="#757575" d="M53.822,-728.2664C68.2046,-739.2903 91.2487,-754.7738 114.2549,-761.1369 216.4351,-789.398 269.2292,-826.3807 352.792,-761.1369 404.7897,-720.5383 339.3358,-660.7957 388.792,-617.1369 489.8629,-527.9138 861.4264,-581.1378 991.0684,-544.1369 1156.5689,-496.9017 1337.9395,-395.3282 1407.0925,-354.5779"/>
<polygon fill="#757575" stroke="#757575" points="1409.2744,-357.3533 1416.0922,-349.2435 1405.7051,-351.3316 1409.2744,-357.3533"/>
</g>
<!-- validate.js&#45;&gt;../lib/js/_utils/_generate&#45;toolkit&#45;config.js -->
<g id="edge70" class="edge">
<title>validate.js&#45;&gt;../lib/js/_utils/_generate&#45;toolkit&#45;config.js</title>
<path fill="none" stroke="#757575" d="M78.533,-719.612C153.7313,-725.3312 313.7117,-732.8179 352.792,-697.1369 431.148,-625.5966 313.4015,-535.7959 388.792,-461.1369 391.9406,-458.0188 395.3287,-455.2243 398.9101,-452.7241"/>
<polygon fill="#757575" stroke="#757575" points="400.8918,-455.6148 407.5955,-447.4104 397.2386,-449.6436 400.8918,-455.6148"/>
</g>
<!-- validate.js&#45;&gt;../lib/js/_utils/_current&#45;working&#45;directory.js -->
<g id="edge67" class="edge">
<title>validate.js&#45;&gt;../lib/js/_utils/_current&#45;working&#45;directory.js</title>
<path fill="none" stroke="#757575" d="M42.9523,-728.2052C51.8211,-754.6343 75.9964,-818.5071 114.2549,-859.1369 212.0046,-962.9453 251.4435,-986.8409 388.792,-1025.1369 531.4798,-1064.9216 708.0782,-1036.2016 797.5013,-1016.4959"/>
<polygon fill="#757575" stroke="#757575" points="798.4552,-1019.8689 807.4449,-1014.2621 796.9209,-1013.0391 798.4552,-1019.8689"/>
</g>
<!-- validate.js&#45;&gt;../lib/js/_utils/_generate&#45;context&#45;config.js -->
<g id="edge69" class="edge">
<title>validate.js&#45;&gt;../lib/js/_utils/_generate&#45;context&#45;config.js</title>
<path fill="none" stroke="#757575" d="M67.0499,-728.2166C126.6571,-751.9212 267.8286,-796.6952 352.792,-730.1369 405.4032,-688.9225 350.8668,-639.1664 388.792,-584.1369 416.2188,-544.3405 464.6161,-515.2754 498.4207,-498.5766"/>
<polygon fill="#757575" stroke="#757575" points="500.0407,-501.6812 507.5388,-494.1959 497.0094,-495.3716 500.0407,-501.6812"/>
</g>
<!-- validate.js&#45;&gt;../lib/js/_utils/_get&#45;toolkit&#45;locations.js -->
<g id="edge71" class="edge">
<title>validate.js&#45;&gt;../lib/js/_utils/_get&#45;toolkit&#45;locations.js</title>
<path fill="none" stroke="#757575" d="M52.2779,-703.9319C66.7568,-690.8697 91.0677,-670.0216 114.2549,-655.1369 140.17,-638.5011 171.4358,-623.1926 195.4529,-612.3399"/>
<polygon fill="#757575" stroke="#757575" points="196.8956,-615.5289 204.6046,-608.261 194.0459,-609.1352 196.8956,-615.5289"/>
</g>
<!-- validate.js&#45;&gt;../lib/js/_utils/_get&#45;toolkit&#45;names.js -->
<g id="edge72" class="edge">
<title>validate.js&#45;&gt;../lib/js/_utils/_get&#45;toolkit&#45;names.js</title>
<path fill="none" stroke="#757575" d="M41.7923,-703.943C48.5526,-676.1293 69.1327,-607.8818 114.2549,-575.1369 116.3394,-573.6242 118.4975,-572.2082 120.7174,-570.883"/>
<polygon fill="#757575" stroke="#757575" points="122.3545,-573.9766 129.5611,-566.2103 119.0843,-567.7874 122.3545,-573.9766"/>
</g>
<!-- validate.js&#45;&gt;../lib/js/_validate.js -->
<g id="edge73" class="edge">
<title>validate.js&#45;&gt;../lib/js/_validate.js</title>
<path fill="none" stroke="#757575" d="M45.9369,-728.3861C57.422,-747.8885 82.5273,-785.8597 114.2549,-806.1369 127.5916,-814.6604 143.1554,-820.9292 158.5526,-825.5347"/>
<polygon fill="#757575" stroke="#757575" points="158.0499,-829.0274 168.6216,-828.328 159.9212,-822.2821 158.0499,-829.0274"/>
</g>
</g>
</svg>
