<?xml version="1.0" encoding="UTF-8" standalone="no"?>
<!DOCTYPE svg PUBLIC "-//W3C//DTD SVG 1.1//EN"
 "http://www.w3.org/Graphics/SVG/1.1/DTD/svg11.dtd">
<!-- Generated by graphviz version 2.40.1 (20161225.0304)
 -->
<!-- Title: G Pages: 1 -->
<svg width="1313pt" height="479pt"
 viewBox="0.00 0.00 1312.66 479.30" xmlns="http://www.w3.org/2000/svg" xmlns:xlink="http://www.w3.org/1999/xlink">
<g id="graph0" class="graph" transform="scale(1 1) rotate(0) translate(21.6 457.6986)">
<title>G</title>
<polygon fill="#111111" stroke="transparent" points="-21.6,21.6 -21.6,-457.6986 1291.0609,-457.6986 1291.0609,21.6 -21.6,21.6"/>
<!-- ../config/context.json -->
<g id="node1" class="node">
<title>../config/context.json</title>
<path fill="none" stroke="#cfffac" d="M309.7793,-436.1482C309.7793,-436.1482 182.6562,-436.1482 182.6562,-436.1482 178.6233,-436.1482 174.5903,-432.1152 174.5903,-428.0823 174.5903,-428.0823 174.5903,-420.0164 174.5903,-420.0164 174.5903,-415.9834 178.6233,-411.9505 182.6562,-411.9505 182.6562,-411.9505 309.7793,-411.9505 309.7793,-411.9505 313.8123,-411.9505 317.8452,-415.9834 317.8452,-420.0164 317.8452,-420.0164 317.8452,-428.0823 317.8452,-428.0823 317.8452,-432.1152 313.8123,-436.1482 309.7793,-436.1482"/>
<text text-anchor="middle" x="246.2178" y="-420.8986" font-family="Arial" font-size="14.00" fill="#cfffac">../config/context.json</text>
</g>
<!-- ../config/default.json -->
<g id="node2" class="node">
<title>../config/default.json</title>
<path fill="none" stroke="#cfffac" d="M308.1761,-394.1482C308.1761,-394.1482 184.2594,-394.1482 184.2594,-394.1482 180.2265,-394.1482 176.1935,-390.1152 176.1935,-386.0823 176.1935,-386.0823 176.1935,-378.0164 176.1935,-378.0164 176.1935,-373.9834 180.2265,-369.9505 184.2594,-369.9505 184.2594,-369.9505 308.1761,-369.9505 308.1761,-369.9505 312.2091,-369.9505 316.242,-373.9834 316.242,-378.0164 316.242,-378.0164 316.242,-386.0823 316.242,-386.0823 316.242,-390.1152 312.2091,-394.1482 308.1761,-394.1482"/>
<text text-anchor="middle" x="246.2178" y="-378.8986" font-family="Arial" font-size="14.00" fill="#cfffac">../config/default.json</text>
</g>
<!-- ../lib/js/_publish.js -->
<g id="node3" class="node">
<title>../lib/js/_publish.js</title>
<path fill="none" stroke="#c6c5fe" d="M300.869,-234.1482C300.869,-234.1482 191.5665,-234.1482 191.5665,-234.1482 187.5336,-234.1482 183.5007,-230.1152 183.5007,-226.0823 183.5007,-226.0823 183.5007,-218.0164 183.5007,-218.0164 183.5007,-213.9834 187.5336,-209.9505 191.5665,-209.9505 191.5665,-209.9505 300.869,-209.9505 300.869,-209.9505 304.9019,-209.9505 308.9349,-213.9834 308.9349,-218.0164 308.9349,-218.0164 308.9349,-226.0823 308.9349,-226.0823 308.9349,-230.1152 304.9019,-234.1482 300.869,-234.1482"/>
<text text-anchor="middle" x="246.2178" y="-218.8986" font-family="Arial" font-size="14.00" fill="#c6c5fe">../lib/js/_publish.js</text>
</g>
<!-- ../lib/js/_publish/_create&#45;install&#45;message.js -->
<g id="node4" class="node">
<title>../lib/js/_publish/_create&#45;install&#45;message.js</title>
<path fill="none" stroke="#c6c5fe" d="M688.3444,-192.1482C688.3444,-192.1482 426.0228,-192.1482 426.0228,-192.1482 421.9899,-192.1482 417.9569,-188.1152 417.9569,-184.0823 417.9569,-184.0823 417.9569,-176.0164 417.9569,-176.0164 417.9569,-171.9834 421.9899,-167.9505 426.0228,-167.9505 426.0228,-167.9505 688.3444,-167.9505 688.3444,-167.9505 692.3773,-167.9505 696.4102,-171.9834 696.4102,-176.0164 696.4102,-176.0164 696.4102,-184.0823 696.4102,-184.0823 696.4102,-188.1152 692.3773,-192.1482 688.3444,-192.1482"/>
<text text-anchor="middle" x="557.1836" y="-176.8986" font-family="Arial" font-size="14.00" fill="#c6c5fe">../lib/js/_publish/_create&#45;install&#45;message.js</text>
</g>
<!-- ../lib/js/_publish.js&#45;&gt;../lib/js/_publish/_create&#45;install&#45;message.js -->
<g id="edge1" class="edge">
<title>../lib/js/_publish.js&#45;&gt;../lib/js/_publish/_create&#45;install&#45;message.js</title>
<path fill="none" stroke="#757575" d="M309.1463,-213.55C351.8167,-207.7868 409.1093,-200.0487 457.8811,-193.4614"/>
<polygon fill="#757575" stroke="#757575" points="458.3909,-196.9244 467.8324,-192.1174 457.4539,-189.9874 458.3909,-196.9244"/>
</g>
<!-- ../lib/js/_publish/_publish&#45;to&#45;npm.js -->
<g id="node5" class="node">
<title>../lib/js/_publish/_publish&#45;to&#45;npm.js</title>
<path fill="none" stroke="#c6c5fe" d="M664.1099,-150.1482C664.1099,-150.1482 450.2573,-150.1482 450.2573,-150.1482 446.2244,-150.1482 442.1914,-146.1152 442.1914,-142.0823 442.1914,-142.0823 442.1914,-134.0164 442.1914,-134.0164 442.1914,-129.9834 446.2244,-125.9505 450.2573,-125.9505 450.2573,-125.9505 664.1099,-125.9505 664.1099,-125.9505 668.1428,-125.9505 672.1758,-129.9834 672.1758,-134.0164 672.1758,-134.0164 672.1758,-142.0823 672.1758,-142.0823 672.1758,-146.1152 668.1428,-150.1482 664.1099,-150.1482"/>
<text text-anchor="middle" x="557.1836" y="-134.8986" font-family="Arial" font-size="14.00" fill="#c6c5fe">../lib/js/_publish/_publish&#45;to&#45;npm.js</text>
</g>
<!-- ../lib/js/_publish.js&#45;&gt;../lib/js/_publish/_publish&#45;to&#45;npm.js -->
<g id="edge2" class="edge">
<title>../lib/js/_publish.js&#45;&gt;../lib/js/_publish/_publish&#45;to&#45;npm.js</title>
<path fill="none" stroke="#757575" d="M309.0576,-221.5027C333.1289,-219.0102 360.0688,-213.2917 382.0703,-201.0493 403.5539,-189.0952 396.5656,-170.9654 418.0703,-159.0493 422.627,-156.5244 427.39,-154.2744 432.2933,-152.2711"/>
<polygon fill="#757575" stroke="#757575" points="433.7201,-155.475 441.8783,-148.7153 431.2853,-148.912 433.7201,-155.475"/>
</g>
<!-- ../lib/js/_utils/_check&#45;current&#45;version.js -->
<g id="node6" class="node">
<title>../lib/js/_utils/_check&#45;current&#45;version.js</title>
<path fill="none" stroke="#c6c5fe" d="M675.1416,-234.1482C675.1416,-234.1482 439.2256,-234.1482 439.2256,-234.1482 435.1927,-234.1482 431.1597,-230.1152 431.1597,-226.0823 431.1597,-226.0823 431.1597,-218.0164 431.1597,-218.0164 431.1597,-213.9834 435.1927,-209.9505 439.2256,-209.9505 439.2256,-209.9505 675.1416,-209.9505 675.1416,-209.9505 679.1745,-209.9505 683.2075,-213.9834 683.2075,-218.0164 683.2075,-218.0164 683.2075,-226.0823 683.2075,-226.0823 683.2075,-230.1152 679.1745,-234.1482 675.1416,-234.1482"/>
<text text-anchor="middle" x="557.1836" y="-218.8986" font-family="Arial" font-size="14.00" fill="#c6c5fe">../lib/js/_utils/_check&#45;current&#45;version.js</text>
</g>
<!-- ../lib/js/_publish.js&#45;&gt;../lib/js/_utils/_check&#45;current&#45;version.js -->
<g id="edge3" class="edge">
<title>../lib/js/_publish.js&#45;&gt;../lib/js/_utils/_check&#45;current&#45;version.js</title>
<path fill="none" stroke="#757575" d="M309.1463,-222.0493C341.3216,-222.0493 381.8109,-222.0493 420.6918,-222.0493"/>
<polygon fill="#757575" stroke="#757575" points="421.0697,-225.5494 431.0696,-222.0493 421.0696,-218.5494 421.0697,-225.5494"/>
</g>
<!-- ../lib/js/_utils/_error.js -->
<g id="node7" class="node">
<title>../lib/js/_utils/_error.js</title>
<path fill="none" stroke="#cfffac" d="M1211.0677,-295.1482C1211.0677,-295.1482 1080.779,-295.1482 1080.779,-295.1482 1076.746,-295.1482 1072.7131,-291.1152 1072.7131,-287.0823 1072.7131,-287.0823 1072.7131,-279.0164 1072.7131,-279.0164 1072.7131,-274.9834 1076.746,-270.9505 1080.779,-270.9505 1080.779,-270.9505 1211.0677,-270.9505 1211.0677,-270.9505 1215.1006,-270.9505 1219.1336,-274.9834 1219.1336,-279.0164 1219.1336,-279.0164 1219.1336,-287.0823 1219.1336,-287.0823 1219.1336,-291.1152 1215.1006,-295.1482 1211.0677,-295.1482"/>
<text text-anchor="middle" x="1145.9233" y="-279.8986" font-family="Arial" font-size="14.00" fill="#cfffac">../lib/js/_utils/_error.js</text>
</g>
<!-- ../lib/js/_publish.js&#45;&gt;../lib/js/_utils/_error.js -->
<g id="edge4" class="edge">
<title>../lib/js/_publish.js&#45;&gt;../lib/js/_utils/_error.js</title>
<path fill="none" stroke="#757575" d="M308.9779,-230.5569C341.4892,-234.7512 381.8619,-239.6297 418.0703,-243.0493 650.9191,-265.0401 926.9028,-276.1264 1062.39,-280.5917"/>
<polygon fill="#757575" stroke="#757575" points="1062.5812,-284.0997 1072.6899,-280.9273 1062.8092,-277.1034 1062.5812,-284.0997"/>
</g>
<!-- ../lib/js/_utils/_get&#45;packages.js -->
<g id="node8" class="node">
<title>../lib/js/_utils/_get&#45;packages.js</title>
<path fill="none" stroke="#cfffac" d="M650.0962,-314.1482C650.0962,-314.1482 464.271,-314.1482 464.271,-314.1482 460.238,-314.1482 456.2051,-310.1152 456.2051,-306.0823 456.2051,-306.0823 456.2051,-298.0164 456.2051,-298.0164 456.2051,-293.9834 460.238,-289.9505 464.271,-289.9505 464.271,-289.9505 650.0962,-289.9505 650.0962,-289.9505 654.1292,-289.9505 658.1621,-293.9834 658.1621,-298.0164 658.1621,-298.0164 658.1621,-306.0823 658.1621,-306.0823 658.1621,-310.1152 654.1292,-314.1482 650.0962,-314.1482"/>
<text text-anchor="middle" x="557.1836" y="-298.8986" font-family="Arial" font-size="14.00" fill="#cfffac">../lib/js/_utils/_get&#45;packages.js</text>
</g>
<!-- ../lib/js/_publish.js&#45;&gt;../lib/js/_utils/_get&#45;packages.js -->
<g id="edge5" class="edge">
<title>../lib/js/_publish.js&#45;&gt;../lib/js/_utils/_get&#45;packages.js</title>
<path fill="none" stroke="#757575" d="M280.4349,-234.1341C314.8727,-245.9798 369.6735,-263.9691 418.0703,-276.0493 435.9533,-280.5131 455.3013,-284.5934 473.7201,-288.1316"/>
<polygon fill="#757575" stroke="#757575" points="473.0714,-291.5709 483.547,-289.9859 474.3694,-284.6923 473.0714,-291.5709"/>
</g>
<!-- ../lib/js/_utils/_check&#45;context&#45;version.js -->
<g id="node9" class="node">
<title>../lib/js/_utils/_check&#45;context&#45;version.js</title>
<path fill="none" stroke="#c6c5fe" d="M978.3643,-171.1482C978.3643,-171.1482 740.3183,-171.1482 740.3183,-171.1482 736.2854,-171.1482 732.2524,-167.1152 732.2524,-163.0823 732.2524,-163.0823 732.2524,-155.0164 732.2524,-155.0164 732.2524,-150.9834 736.2854,-146.9505 740.3183,-146.9505 740.3183,-146.9505 978.3643,-146.9505 978.3643,-146.9505 982.3972,-146.9505 986.4302,-150.9834 986.4302,-155.0164 986.4302,-155.0164 986.4302,-163.0823 986.4302,-163.0823 986.4302,-167.1152 982.3972,-171.1482 978.3643,-171.1482"/>
<text text-anchor="middle" x="859.3413" y="-155.8986" font-family="Arial" font-size="14.00" fill="#c6c5fe">../lib/js/_utils/_check&#45;context&#45;version.js</text>
</g>
<!-- ../lib/js/_publish/_create&#45;install&#45;message.js&#45;&gt;../lib/js/_utils/_check&#45;context&#45;version.js -->
<g id="edge6" class="edge">
<title>../lib/js/_publish/_create&#45;install&#45;message.js&#45;&gt;../lib/js/_utils/_check&#45;context&#45;version.js</title>
<path fill="none" stroke="#757575" d="M696.323,-170.3791C704.8949,-169.7834 713.5185,-169.184 722.0824,-168.5888"/>
<polygon fill="#757575" stroke="#757575" points="722.3682,-172.0775 732.1015,-167.8925 721.8828,-165.0943 722.3682,-172.0775"/>
</g>
<!-- ../lib/js/_publish/_publish&#45;package.js -->
<g id="node11" class="node">
<title>../lib/js/_publish/_publish&#45;package.js</title>
<path fill="none" stroke="#cfffac" d="M971.1263,-129.1482C971.1263,-129.1482 747.5564,-129.1482 747.5564,-129.1482 743.5234,-129.1482 739.4905,-125.1152 739.4905,-121.0823 739.4905,-121.0823 739.4905,-113.0164 739.4905,-113.0164 739.4905,-108.9834 743.5234,-104.9505 747.5564,-104.9505 747.5564,-104.9505 971.1263,-104.9505 971.1263,-104.9505 975.1592,-104.9505 979.1922,-108.9834 979.1922,-113.0164 979.1922,-113.0164 979.1922,-121.0823 979.1922,-121.0823 979.1922,-125.1152 975.1592,-129.1482 971.1263,-129.1482"/>
<text text-anchor="middle" x="859.3413" y="-113.8986" font-family="Arial" font-size="14.00" fill="#cfffac">../lib/js/_publish/_publish&#45;package.js</text>
</g>
<!-- ../lib/js/_publish/_publish&#45;to&#45;npm.js&#45;&gt;../lib/js/_publish/_publish&#45;package.js -->
<g id="edge7" class="edge">
<title>../lib/js/_publish/_publish&#45;to&#45;npm.js&#45;&gt;../lib/js/_publish/_publish&#45;package.js</title>
<path fill="none" stroke="#757575" d="M672.2784,-130.0502C690.9392,-128.7533 710.3776,-127.4023 729.3626,-126.0829"/>
<polygon fill="#757575" stroke="#757575" points="729.8144,-129.56 739.5476,-125.375 729.329,-122.5768 729.8144,-129.56"/>
</g>
<!-- ../lib/js/_publish/_set&#45;auth&#45;token.js -->
<g id="node12" class="node">
<title>../lib/js/_publish/_set&#45;auth&#45;token.js</title>
<path fill="none" stroke="#c6c5fe" d="M964.6641,-87.1482C964.6641,-87.1482 754.0185,-87.1482 754.0185,-87.1482 749.9856,-87.1482 745.9526,-83.1152 745.9526,-79.0823 745.9526,-79.0823 745.9526,-71.0164 745.9526,-71.0164 745.9526,-66.9834 749.9856,-62.9505 754.0185,-62.9505 754.0185,-62.9505 964.6641,-62.9505 964.6641,-62.9505 968.6971,-62.9505 972.73,-66.9834 972.73,-71.0164 972.73,-71.0164 972.73,-79.0823 972.73,-79.0823 972.73,-83.1152 968.6971,-87.1482 964.6641,-87.1482"/>
<text text-anchor="middle" x="859.3413" y="-71.8986" font-family="Arial" font-size="14.00" fill="#c6c5fe">../lib/js/_publish/_set&#45;auth&#45;token.js</text>
</g>
<!-- ../lib/js/_publish/_publish&#45;to&#45;npm.js&#45;&gt;../lib/js/_publish/_set&#45;auth&#45;token.js -->
<g id="edge8" class="edge">
<title>../lib/js/_publish/_publish&#45;to&#45;npm.js&#45;&gt;../lib/js/_publish/_set&#45;auth&#45;token.js</title>
<path fill="none" stroke="#757575" d="M664.8987,-125.9648C675.6447,-123.5206 686.2764,-120.5821 696.2969,-117.0493 713.7662,-110.8904 714.871,-102.3303 732.2969,-96.0493 739.0203,-93.6259 746.0457,-91.4803 753.1928,-89.5809"/>
<polygon fill="#757575" stroke="#757575" points="754.1389,-92.9523 762.9973,-87.1404 752.448,-86.1596 754.1389,-92.9523"/>
</g>
<!-- ../lib/js/_utils/_check&#45;new&#45;version.js -->
<g id="node14" class="node">
<title>../lib/js/_utils/_check&#45;new&#45;version.js</title>
<path fill="none" stroke="#c6c5fe" d="M968.4095,-255.1482C968.4095,-255.1482 750.2731,-255.1482 750.2731,-255.1482 746.2402,-255.1482 742.2072,-251.1152 742.2072,-247.0823 742.2072,-247.0823 742.2072,-239.0164 742.2072,-239.0164 742.2072,-234.9834 746.2402,-230.9505 750.2731,-230.9505 750.2731,-230.9505 968.4095,-230.9505 968.4095,-230.9505 972.4424,-230.9505 976.4754,-234.9834 976.4754,-239.0164 976.4754,-239.0164 976.4754,-247.0823 976.4754,-247.0823 976.4754,-251.1152 972.4424,-255.1482 968.4095,-255.1482"/>
<text text-anchor="middle" x="859.3413" y="-239.8986" font-family="Arial" font-size="14.00" fill="#c6c5fe">../lib/js/_utils/_check&#45;new&#45;version.js</text>
</g>
<!-- ../lib/js/_utils/_check&#45;current&#45;version.js&#45;&gt;../lib/js/_utils/_check&#45;new&#45;version.js -->
<g id="edge11" class="edge">
<title>../lib/js/_utils/_check&#45;current&#45;version.js&#45;&gt;../lib/js/_utils/_check&#45;new&#45;version.js</title>
<path fill="none" stroke="#757575" d="M683.5749,-230.8335C699.4939,-231.9399 715.7888,-233.0724 731.7266,-234.1801"/>
<polygon fill="#757575" stroke="#757575" points="731.9222,-237.702 742.1408,-234.9039 732.4076,-230.7189 731.9222,-237.702"/>
</g>
<!-- ../lib/js/_utils/_get&#45;latest&#45;version.js -->
<g id="node15" class="node">
<title>../lib/js/_utils/_get&#45;latest&#45;version.js</title>
<path fill="none" stroke="#c6c5fe" d="M964.0784,-213.1482C964.0784,-213.1482 754.6043,-213.1482 754.6043,-213.1482 750.5713,-213.1482 746.5384,-209.1152 746.5384,-205.0823 746.5384,-205.0823 746.5384,-197.0164 746.5384,-197.0164 746.5384,-192.9834 750.5713,-188.9505 754.6043,-188.9505 754.6043,-188.9505 964.0784,-188.9505 964.0784,-188.9505 968.1113,-188.9505 972.1442,-192.9834 972.1442,-197.0164 972.1442,-197.0164 972.1442,-205.0823 972.1442,-205.0823 972.1442,-209.1152 968.1113,-213.1482 964.0784,-213.1482"/>
<text text-anchor="middle" x="859.3413" y="-197.8986" font-family="Arial" font-size="14.00" fill="#c6c5fe">../lib/js/_utils/_get&#45;latest&#45;version.js</text>
</g>
<!-- ../lib/js/_utils/_check&#45;current&#45;version.js&#45;&gt;../lib/js/_utils/_get&#45;latest&#45;version.js -->
<g id="edge12" class="edge">
<title>../lib/js/_utils/_check&#45;current&#45;version.js&#45;&gt;../lib/js/_utils/_get&#45;latest&#45;version.js</title>
<path fill="none" stroke="#757575" d="M683.5749,-213.2651C701.0138,-212.0531 718.9038,-210.8097 736.2812,-209.602"/>
<polygon fill="#757575" stroke="#757575" points="736.713,-213.0805 746.4463,-208.8955 736.2276,-206.0974 736.713,-213.0805"/>
</g>
<!-- ../lib/js/_utils/_npm&#45;registry&#45;request.js -->
<g id="node13" class="node">
<title>../lib/js/_utils/_npm&#45;registry&#45;request.js</title>
<path fill="none" stroke="#cfffac" d="M1261.4327,-192.1482C1261.4327,-192.1482 1030.414,-192.1482 1030.414,-192.1482 1026.3811,-192.1482 1022.3481,-188.1152 1022.3481,-184.0823 1022.3481,-184.0823 1022.3481,-176.0164 1022.3481,-176.0164 1022.3481,-171.9834 1026.3811,-167.9505 1030.414,-167.9505 1030.414,-167.9505 1261.4327,-167.9505 1261.4327,-167.9505 1265.4656,-167.9505 1269.4985,-171.9834 1269.4985,-176.0164 1269.4985,-176.0164 1269.4985,-184.0823 1269.4985,-184.0823 1269.4985,-188.1152 1265.4656,-192.1482 1261.4327,-192.1482"/>
<text text-anchor="middle" x="1145.9233" y="-176.8986" font-family="Arial" font-size="14.00" fill="#cfffac">../lib/js/_utils/_npm&#45;registry&#45;request.js</text>
</g>
<!-- ../lib/js/_utils/_check&#45;context&#45;version.js&#45;&gt;../lib/js/_utils/_npm&#45;registry&#45;request.js -->
<g id="edge10" class="edge">
<title>../lib/js/_utils/_check&#45;context&#45;version.js&#45;&gt;../lib/js/_utils/_npm&#45;registry&#45;request.js</title>
<path fill="none" stroke="#757575" d="M986.7093,-168.3825C995.1053,-168.9978 1003.5751,-169.6184 1012.0015,-170.2359"/>
<polygon fill="#757575" stroke="#757575" points="1012.0214,-173.7466 1022.2505,-170.9869 1012.533,-166.7653 1012.0214,-173.7466"/>
</g>
<!-- ../lib/js/_publish/_form&#45;auth&#45;token.js -->
<g id="node10" class="node">
<title>../lib/js/_publish/_form&#45;auth&#45;token.js</title>
<path fill="none" stroke="#cfffac" d="M1256.0704,-87.1482C1256.0704,-87.1482 1035.7762,-87.1482 1035.7762,-87.1482 1031.7433,-87.1482 1027.7104,-83.1152 1027.7104,-79.0823 1027.7104,-79.0823 1027.7104,-71.0164 1027.7104,-71.0164 1027.7104,-66.9834 1031.7433,-62.9505 1035.7762,-62.9505 1035.7762,-62.9505 1256.0704,-62.9505 1256.0704,-62.9505 1260.1034,-62.9505 1264.1363,-66.9834 1264.1363,-71.0164 1264.1363,-71.0164 1264.1363,-79.0823 1264.1363,-79.0823 1264.1363,-83.1152 1260.1034,-87.1482 1256.0704,-87.1482"/>
<text text-anchor="middle" x="1145.9233" y="-71.8986" font-family="Arial" font-size="14.00" fill="#cfffac">../lib/js/_publish/_form&#45;auth&#45;token.js</text>
</g>
<!-- ../lib/js/_publish/_set&#45;auth&#45;token.js&#45;&gt;../lib/js/_publish/_form&#45;auth&#45;token.js -->
<g id="edge9" class="edge">
<title>../lib/js/_publish/_set&#45;auth&#45;token.js&#45;&gt;../lib/js/_publish/_form&#45;auth&#45;token.js</title>
<path fill="none" stroke="#757575" d="M973.0177,-75.0493C987.6195,-75.0493 1002.6503,-75.0493 1017.4673,-75.0493"/>
<polygon fill="#757575" stroke="#757575" points="1017.6831,-78.5494 1027.6831,-75.0493 1017.683,-71.5494 1017.6831,-78.5494"/>
</g>
<!-- ../lib/js/_utils/_check&#45;new&#45;version.js&#45;&gt;../lib/js/_utils/_error.js -->
<g id="edge13" class="edge">
<title>../lib/js/_utils/_check&#45;new&#45;version.js&#45;&gt;../lib/js/_utils/_error.js</title>
<path fill="none" stroke="#757575" d="M945.714,-255.1049C982.6221,-260.2564 1025.5461,-266.2475 1062.1624,-271.3583"/>
<polygon fill="#757575" stroke="#757575" points="1061.9247,-274.859 1072.3126,-272.775 1062.8924,-267.9262 1061.9247,-274.859"/>
</g>
<!-- ../lib/js/_utils/_get&#45;latest&#45;version.js&#45;&gt;../lib/js/_utils/_npm&#45;registry&#45;request.js -->
<g id="edge20" class="edge">
<title>../lib/js/_utils/_get&#45;latest&#45;version.js&#45;&gt;../lib/js/_utils/_npm&#45;registry&#45;request.js</title>
<path fill="none" stroke="#757575" d="M972.1947,-192.7797C985.3006,-191.8193 998.7626,-190.8329 1012.1143,-189.8545"/>
<polygon fill="#757575" stroke="#757575" points="1012.5778,-193.33 1022.2952,-189.1085 1012.0661,-186.3487 1012.5778,-193.33"/>
</g>
<!-- ../lib/js/_utils/_check&#45;exists.js -->
<g id="node16" class="node">
<title>../lib/js/_utils/_check&#45;exists.js</title>
<path fill="none" stroke="#cfffac" d="M646.562,-24.1482C646.562,-24.1482 467.8051,-24.1482 467.8051,-24.1482 463.7722,-24.1482 459.7392,-20.1152 459.7392,-16.0823 459.7392,-16.0823 459.7392,-8.0164 459.7392,-8.0164 459.7392,-3.9834 463.7722,.0495 467.8051,.0495 467.8051,.0495 646.562,.0495 646.562,.0495 650.595,.0495 654.6279,-3.9834 654.6279,-8.0164 654.6279,-8.0164 654.6279,-16.0823 654.6279,-16.0823 654.6279,-20.1152 650.595,-24.1482 646.562,-24.1482"/>
<text text-anchor="middle" x="557.1836" y="-8.8986" font-family="Arial" font-size="14.00" fill="#cfffac">../lib/js/_utils/_check&#45;exists.js</text>
</g>
<!-- ../lib/js/_utils/_check&#45;reserved&#45;keys.js -->
<g id="node17" class="node">
<title>../lib/js/_utils/_check&#45;reserved&#45;keys.js</title>
<path fill="none" stroke="#cfffac" d="M672.6929,-108.1482C672.6929,-108.1482 441.6743,-108.1482 441.6743,-108.1482 437.6413,-108.1482 433.6084,-104.1152 433.6084,-100.0823 433.6084,-100.0823 433.6084,-92.0164 433.6084,-92.0164 433.6084,-87.9834 437.6413,-83.9505 441.6743,-83.9505 441.6743,-83.9505 672.6929,-83.9505 672.6929,-83.9505 676.7259,-83.9505 680.7588,-87.9834 680.7588,-92.0164 680.7588,-92.0164 680.7588,-100.0823 680.7588,-100.0823 680.7588,-104.1152 676.7259,-108.1482 672.6929,-108.1482"/>
<text text-anchor="middle" x="557.1836" y="-92.8986" font-family="Arial" font-size="14.00" fill="#cfffac">../lib/js/_utils/_check&#45;reserved&#45;keys.js</text>
</g>
<!-- ../lib/js/_utils/_current&#45;working&#45;directory.js -->
<g id="node18" class="node">
<title>../lib/js/_utils/_current&#45;working&#45;directory.js</title>
<path fill="none" stroke="#cfffac" d="M373.8571,-192.1482C373.8571,-192.1482 118.5784,-192.1482 118.5784,-192.1482 114.5455,-192.1482 110.5125,-188.1152 110.5125,-184.0823 110.5125,-184.0823 110.5125,-176.0164 110.5125,-176.0164 110.5125,-171.9834 114.5455,-167.9505 118.5784,-167.9505 118.5784,-167.9505 373.8571,-167.9505 373.8571,-167.9505 377.8901,-167.9505 381.923,-171.9834 381.923,-176.0164 381.923,-176.0164 381.923,-184.0823 381.923,-184.0823 381.923,-188.1152 377.8901,-192.1482 373.8571,-192.1482"/>
<text text-anchor="middle" x="246.2178" y="-176.8986" font-family="Arial" font-size="14.00" fill="#cfffac">../lib/js/_utils/_current&#45;working&#45;directory.js</text>
</g>
<!-- ../lib/js/_utils/_deduped&#45;array&#45;merge.js -->
<g id="node19" class="node">
<title>../lib/js/_utils/_deduped&#45;array&#45;merge.js</title>
<path fill="none" stroke="#cfffac" d="M675.948,-66.1482C675.948,-66.1482 438.4192,-66.1482 438.4192,-66.1482 434.3862,-66.1482 430.3533,-62.1152 430.3533,-58.0823 430.3533,-58.0823 430.3533,-50.0164 430.3533,-50.0164 430.3533,-45.9834 434.3862,-41.9505 438.4192,-41.9505 438.4192,-41.9505 675.948,-41.9505 675.948,-41.9505 679.9809,-41.9505 684.0139,-45.9834 684.0139,-50.0164 684.0139,-50.0164 684.0139,-58.0823 684.0139,-58.0823 684.0139,-62.1152 679.9809,-66.1482 675.948,-66.1482"/>
<text text-anchor="middle" x="557.1836" y="-50.8986" font-family="Arial" font-size="14.00" fill="#cfffac">../lib/js/_utils/_deduped&#45;array&#45;merge.js</text>
</g>
<!-- ../lib/js/_utils/_generate&#45;context&#45;config.js -->
<g id="node20" class="node">
<title>../lib/js/_utils/_generate&#45;context&#45;config.js</title>
<path fill="none" stroke="#c6c5fe" d="M370.6646,-150.1482C370.6646,-150.1482 121.771,-150.1482 121.771,-150.1482 117.738,-150.1482 113.7051,-146.1152 113.7051,-142.0823 113.7051,-142.0823 113.7051,-134.0164 113.7051,-134.0164 113.7051,-129.9834 117.738,-125.9505 121.771,-125.9505 121.771,-125.9505 370.6646,-125.9505 370.6646,-125.9505 374.6975,-125.9505 378.7305,-129.9834 378.7305,-134.0164 378.7305,-134.0164 378.7305,-142.0823 378.7305,-142.0823 378.7305,-146.1152 374.6975,-150.1482 370.6646,-150.1482"/>
<text text-anchor="middle" x="246.2178" y="-134.8986" font-family="Arial" font-size="14.00" fill="#c6c5fe">../lib/js/_utils/_generate&#45;context&#45;config.js</text>
</g>
<!-- ../lib/js/_utils/_generate&#45;context&#45;config.js&#45;&gt;../lib/js/_utils/_check&#45;exists.js -->
<g id="edge14" class="edge">
<title>../lib/js/_utils/_generate&#45;context&#45;config.js&#45;&gt;../lib/js/_utils/_check&#45;exists.js</title>
<path fill="none" stroke="#757575" d="M368.1981,-125.8871C373.078,-123.3421 377.7327,-120.4132 382.0703,-117.0493 414.1669,-92.1578 385.9297,-57.884 418.0703,-33.0493 427.5077,-25.7572 438.4059,-20.4828 449.8643,-16.7217"/>
<polygon fill="#757575" stroke="#757575" points="450.9665,-20.0465 459.6014,-13.9073 449.0228,-13.3218 450.9665,-20.0465"/>
</g>
<!-- ../lib/js/_utils/_generate&#45;context&#45;config.js&#45;&gt;../lib/js/_utils/_check&#45;reserved&#45;keys.js -->
<g id="edge15" class="edge">
<title>../lib/js/_utils/_generate&#45;context&#45;config.js&#45;&gt;../lib/js/_utils/_check&#45;reserved&#45;keys.js</title>
<path fill="none" stroke="#757575" d="M335.7448,-125.9575C373.7919,-120.8188 418.3071,-114.8064 457.4065,-109.5255"/>
<polygon fill="#757575" stroke="#757575" points="458.3087,-112.9355 467.7502,-108.1285 457.3717,-105.9985 458.3087,-112.9355"/>
</g>
<!-- ../lib/js/_utils/_generate&#45;context&#45;config.js&#45;&gt;../lib/js/_utils/_deduped&#45;array&#45;merge.js -->
<g id="edge16" class="edge">
<title>../lib/js/_utils/_generate&#45;context&#45;config.js&#45;&gt;../lib/js/_utils/_deduped&#45;array&#45;merge.js</title>
<path fill="none" stroke="#757575" d="M362.2828,-125.9863C369.1583,-123.4843 375.8139,-120.5306 382.0703,-117.0493 403.5539,-105.0952 396.5656,-86.9654 418.0703,-75.0493 421.3618,-73.2255 424.7609,-71.5451 428.2428,-69.9975"/>
<polygon fill="#757575" stroke="#757575" points="429.6744,-73.1941 437.636,-66.2038 427.0529,-66.7034 429.6744,-73.1941"/>
</g>
<!-- ../lib/js/_utils/_generate&#45;toolkit&#45;config.js -->
<g id="node21" class="node">
<title>../lib/js/_utils/_generate&#45;toolkit&#45;config.js</title>
<path fill="none" stroke="#c6c5fe" d="M366.5995,-108.1482C366.5995,-108.1482 125.836,-108.1482 125.836,-108.1482 121.8031,-108.1482 117.7701,-104.1152 117.7701,-100.0823 117.7701,-100.0823 117.7701,-92.0164 117.7701,-92.0164 117.7701,-87.9834 121.8031,-83.9505 125.836,-83.9505 125.836,-83.9505 366.5995,-83.9505 366.5995,-83.9505 370.6325,-83.9505 374.6654,-87.9834 374.6654,-92.0164 374.6654,-92.0164 374.6654,-100.0823 374.6654,-100.0823 374.6654,-104.1152 370.6325,-108.1482 366.5995,-108.1482"/>
<text text-anchor="middle" x="246.2178" y="-92.8986" font-family="Arial" font-size="14.00" fill="#c6c5fe">../lib/js/_utils/_generate&#45;toolkit&#45;config.js</text>
</g>
<!-- ../lib/js/_utils/_generate&#45;toolkit&#45;config.js&#45;&gt;../lib/js/_utils/_check&#45;exists.js -->
<g id="edge17" class="edge">
<title>../lib/js/_utils/_generate&#45;toolkit&#45;config.js&#45;&gt;../lib/js/_utils/_check&#45;exists.js</title>
<path fill="none" stroke="#757575" d="M362.2828,-83.9863C369.1583,-81.4843 375.8139,-78.5306 382.0703,-75.0493 403.5539,-63.0952 396.5656,-44.9654 418.0703,-33.0493 427.9022,-27.6013 438.6947,-23.4334 449.7847,-20.2614"/>
<polygon fill="#757575" stroke="#757575" points="450.7866,-23.6175 459.5904,-17.7232 449.0324,-16.8409 450.7866,-23.6175"/>
</g>
<!-- ../lib/js/_utils/_generate&#45;toolkit&#45;config.js&#45;&gt;../lib/js/_utils/_check&#45;reserved&#45;keys.js -->
<g id="edge18" class="edge">
<title>../lib/js/_utils/_generate&#45;toolkit&#45;config.js&#45;&gt;../lib/js/_utils/_check&#45;reserved&#45;keys.js</title>
<path fill="none" stroke="#757575" d="M374.4948,-96.0493C390.5663,-96.0493 407.0381,-96.0493 423.1943,-96.0493"/>
<polygon fill="#757575" stroke="#757575" points="423.2066,-99.5494 433.2065,-96.0493 423.2065,-92.5494 423.2066,-99.5494"/>
</g>
<!-- ../lib/js/_utils/_generate&#45;toolkit&#45;config.js&#45;&gt;../lib/js/_utils/_deduped&#45;array&#45;merge.js -->
<g id="edge19" class="edge">
<title>../lib/js/_utils/_generate&#45;toolkit&#45;config.js&#45;&gt;../lib/js/_utils/_deduped&#45;array&#45;merge.js</title>
<path fill="none" stroke="#757575" d="M335.7448,-83.9575C373.7919,-78.8188 418.3071,-72.8064 457.4065,-67.5255"/>
<polygon fill="#757575" stroke="#757575" points="458.3087,-70.9355 467.7502,-66.1285 457.3717,-63.9985 458.3087,-70.9355"/>
</g>
<!-- ../lib/js/_utils/_get&#45;toolkit&#45;locations.js -->
<g id="node22" class="node">
<title>../lib/js/_utils/_get&#45;toolkit&#45;locations.js</title>
<path fill="none" stroke="#cfffac" d="M357.1894,-66.1482C357.1894,-66.1482 135.2461,-66.1482 135.2461,-66.1482 131.2132,-66.1482 127.1802,-62.1152 127.1802,-58.0823 127.1802,-58.0823 127.1802,-50.0164 127.1802,-50.0164 127.1802,-45.9834 131.2132,-41.9505 135.2461,-41.9505 135.2461,-41.9505 357.1894,-41.9505 357.1894,-41.9505 361.2224,-41.9505 365.2553,-45.9834 365.2553,-50.0164 365.2553,-50.0164 365.2553,-58.0823 365.2553,-58.0823 365.2553,-62.1152 361.2224,-66.1482 357.1894,-66.1482"/>
<text text-anchor="middle" x="246.2178" y="-50.8986" font-family="Arial" font-size="14.00" fill="#cfffac">../lib/js/_utils/_get&#45;toolkit&#45;locations.js</text>
</g>
<!-- ../lib/js/_utils/_get&#45;toolkit&#45;names.js -->
<g id="node23" class="node">
<title>../lib/js/_utils/_get&#45;toolkit&#45;names.js</title>
<path fill="none" stroke="#c6c5fe" d="M350.9548,-24.1482C350.9548,-24.1482 141.4807,-24.1482 141.4807,-24.1482 137.4478,-24.1482 133.4148,-20.1152 133.4148,-16.0823 133.4148,-16.0823 133.4148,-8.0164 133.4148,-8.0164 133.4148,-3.9834 137.4478,.0495 141.4807,.0495 141.4807,.0495 350.9548,.0495 350.9548,.0495 354.9878,.0495 359.0207,-3.9834 359.0207,-8.0164 359.0207,-8.0164 359.0207,-16.0823 359.0207,-16.0823 359.0207,-20.1152 354.9878,-24.1482 350.9548,-24.1482"/>
<text text-anchor="middle" x="246.2178" y="-8.8986" font-family="Arial" font-size="14.00" fill="#c6c5fe">../lib/js/_utils/_get&#45;toolkit&#45;names.js</text>
</g>
<!-- ../lib/js/_utils/_get&#45;toolkit&#45;names.js&#45;&gt;../lib/js/_utils/_check&#45;exists.js -->
<g id="edge21" class="edge">
<title>../lib/js/_utils/_get&#45;toolkit&#45;names.js&#45;&gt;../lib/js/_utils/_check&#45;exists.js</title>
<path fill="none" stroke="#757575" d="M358.9232,-12.0493C388.3872,-12.0493 420.0735,-12.0493 449.2809,-12.0493"/>
<polygon fill="#757575" stroke="#757575" points="449.5009,-15.5494 459.5008,-12.0493 449.5008,-8.5494 449.5009,-15.5494"/>
</g>
<!-- publish.js -->
<g id="node24" class="node">
<title>publish.js</title>
<path fill="none" stroke="#c6c5fe" d="M66.4829,-192.1482C66.4829,-192.1482 7.8824,-192.1482 7.8824,-192.1482 3.8494,-192.1482 -.1835,-188.1152 -.1835,-184.0823 -.1835,-184.0823 -.1835,-176.0164 -.1835,-176.0164 -.1835,-171.9834 3.8494,-167.9505 7.8824,-167.9505 7.8824,-167.9505 66.4829,-167.9505 66.4829,-167.9505 70.5158,-167.9505 74.5488,-171.9834 74.5488,-176.0164 74.5488,-176.0164 74.5488,-184.0823 74.5488,-184.0823 74.5488,-188.1152 70.5158,-192.1482 66.4829,-192.1482"/>
<text text-anchor="middle" x="37.1826" y="-176.8986" font-family="Arial" font-size="14.00" fill="#c6c5fe">publish.js</text>
</g>
<!-- publish.js&#45;&gt;../config/context.json -->
<g id="edge22" class="edge">
<title>publish.js&#45;&gt;../config/context.json</title>
<path fill="none" stroke="#757575" d="M39.4695,-192.3002C47.6444,-234.7511 76.7299,-374.515 110.3652,-403.0493 125.3979,-415.8022 144.8734,-422.5117 164.3595,-425.7499"/>
<polygon fill="#757575" stroke="#757575" points="164.145,-429.2531 174.527,-427.1406 165.0936,-422.3177 164.145,-429.2531"/>
</g>
<!-- publish.js&#45;&gt;../config/default.json -->
<g id="edge23" class="edge">
<title>publish.js&#45;&gt;../config/default.json</title>
<path fill="none" stroke="#757575" d="M38.3593,-192.1738C42.1748,-224.4283 57.2273,-312.8218 110.3652,-356.0493 126.062,-368.8186 146.1441,-375.9986 166.024,-379.8855"/>
<polygon fill="#757575" stroke="#757575" points="165.6167,-383.3662 176.0607,-381.5845 166.7852,-376.4644 165.6167,-383.3662"/>
</g>
<!-- publish.js&#45;&gt;../lib/js/_publish.js -->
<g id="edge24" class="edge">
<title>publish.js&#45;&gt;../lib/js/_publish.js</title>
<path fill="none" stroke="#757575" d="M74.5569,-191.7565C85.9743,-195.0665 98.6174,-198.4666 110.3652,-201.0493 130.6969,-205.5192 152.9453,-209.381 173.4439,-212.5303"/>
<polygon fill="#757575" stroke="#757575" points="172.9412,-215.994 183.3502,-214.0186 173.9812,-209.0716 172.9412,-215.994"/>
</g>
<!-- publish.js&#45;&gt;../lib/js/_utils/_error.js -->
<g id="edge26" class="edge">
<title>publish.js&#45;&gt;../lib/js/_utils/_error.js</title>
<path fill="none" stroke="#757575" d="M47.8633,-192.1242C61.1314,-206.3818 85.1197,-229.8239 110.3652,-243.0493 235.5338,-308.6215 277.9073,-305.1268 418.0703,-323.0493 652.8191,-353.0664 932.9931,-317.8856 1066.9652,-296.7413"/>
<polygon fill="#757575" stroke="#757575" points="1067.8113,-300.1507 1077.1349,-295.1187 1066.7083,-293.2381 1067.8113,-300.1507"/>
</g>
<!-- publish.js&#45;&gt;../lib/js/_utils/_current&#45;working&#45;directory.js -->
<g id="edge25" class="edge">
<title>publish.js&#45;&gt;../lib/js/_utils/_current&#45;working&#45;directory.js</title>
<path fill="none" stroke="#757575" d="M74.5539,-180.0493C82.3155,-180.0493 90.9339,-180.0493 100.0584,-180.0493"/>
<polygon fill="#757575" stroke="#757575" points="100.1417,-183.5494 110.1416,-180.0493 100.1416,-176.5494 100.1417,-183.5494"/>
</g>
<!-- publish.js&#45;&gt;../lib/js/_utils/_generate&#45;context&#45;config.js -->
<g id="edge27" class="edge">
<title>publish.js&#45;&gt;../lib/js/_utils/_generate&#45;context&#45;config.js</title>
<path fill="none" stroke="#757575" d="M74.5569,-168.3422C85.9743,-165.0322 98.6174,-161.6321 110.3652,-159.0493 122.3202,-156.421 134.9379,-154.003 147.4729,-151.8164"/>
<polygon fill="#757575" stroke="#757575" points="148.2218,-155.2394 157.4937,-150.1128 147.0485,-148.3384 148.2218,-155.2394"/>
</g>
<!-- publish.js&#45;&gt;../lib/js/_utils/_generate&#45;toolkit&#45;config.js -->
<g id="edge28" class="edge">
<title>publish.js&#45;&gt;../lib/js/_utils/_generate&#45;toolkit&#45;config.js</title>
<path fill="none" stroke="#757575" d="M47.4189,-167.7955C60.4248,-153.1305 84.3321,-129.0538 110.3652,-117.0493 114.9876,-114.9179 119.7826,-112.9958 124.6896,-111.263"/>
<polygon fill="#757575" stroke="#757575" points="125.8181,-114.5766 134.248,-108.1588 123.6559,-107.9188 125.8181,-114.5766"/>
</g>
<!-- publish.js&#45;&gt;../lib/js/_utils/_get&#45;toolkit&#45;locations.js -->
<g id="edge29" class="edge">
<title>publish.js&#45;&gt;../lib/js/_utils/_get&#45;toolkit&#45;locations.js</title>
<path fill="none" stroke="#757575" d="M41.8304,-167.8768C51.1014,-145.4017 74.1681,-97.629 110.3652,-75.0493 113.0134,-73.3974 115.7456,-71.8594 118.5462,-70.4281"/>
<polygon fill="#757575" stroke="#757575" points="120.0852,-73.5728 127.7044,-66.2109 117.1572,-67.2145 120.0852,-73.5728"/>
</g>
<!-- publish.js&#45;&gt;../lib/js/_utils/_get&#45;toolkit&#45;names.js -->
<g id="edge30" class="edge">
<title>publish.js&#45;&gt;../lib/js/_utils/_get&#45;toolkit&#45;names.js</title>
<path fill="none" stroke="#757575" d="M39.3714,-167.7223C45.1856,-138.9095 63.8712,-67.0287 110.3652,-33.0493 114.6509,-29.9172 119.2174,-27.1708 123.9836,-24.7668"/>
<polygon fill="#757575" stroke="#757575" points="125.6826,-27.8407 133.374,-20.5542 122.8174,-21.4539 125.6826,-27.8407"/>
</g>
</g>
</svg>
